<svg xmlns="http://www.w3.org/2000/svg" width="97.359" height="27.051" viewBox="0 0 97.359 27.051">
  <g id="Group_37883" data-name="Group 37883" transform="translate(-214.487 -435.499)">
    <g id="Group_34753" data-name="Group 34753" transform="translate(215 435.999)">
      <path id="Path_56598" data-name="Path 56598" d="M86.181,151.7,80.168,164.6a.245.245,0,0,0,.421.247l5.872-8.129a.864.864,0,0,1,1.509.2l4.523,11.919H76.485a1.118,1.118,0,0,1-1.007-1.6l9.8-20.36a2.387,2.387,0,0,1,4.3,0l10.627,21.967H96.72l-7.725-17.11A1.548,1.548,0,0,0,86.181,151.7Z" transform="translate(-75.365 -145.518)" fill="#3350cb" stroke="rgba(0,0,0,0)" stroke-miterlimit="10" stroke-width="1"/>
      <g id="Group_34751" data-name="Group 34751" transform="translate(23.676 0)">
        <path id="Subtraction_203" data-name="Subtraction 203" d="M64.864,22.389a9.292,9.292,0,0,1-2.391-.291,6.883,6.883,0,0,1-1.994-.882l1.992-2.474a4.971,4.971,0,0,0,2.409.546,4.218,4.218,0,0,0,4.273-2.763,7.7,7.7,0,0,0,.4-1.847h-.027a7.688,7.688,0,0,1-4.642,1.542h-.1a7.8,7.8,0,0,1-1.825-.211,7.167,7.167,0,0,1-1.67-.633,7.933,7.933,0,0,1-1.517-1.054,10.233,10.233,0,0,1-1.365-1.476A7.837,7.837,0,0,1,57.073,8.7V8.125a6.808,6.808,0,0,1,.518-2.59,9.138,9.138,0,0,1,1.554-2.47,8.42,8.42,0,0,1,2.648-1.843A7.926,7.926,0,0,1,67.3.993a8.136,8.136,0,0,1,2.227,1.157h.048V.607h3.1v13.51a10.842,10.842,0,0,1-.2,2.114,8.484,8.484,0,0,1-.595,1.861,7.682,7.682,0,0,1-.989,1.608,8.3,8.3,0,0,1-1.382,1.355,8.012,8.012,0,0,1-2.171,1A8.923,8.923,0,0,1,64.864,22.389Zm0-18.666A4.719,4.719,0,0,0,60.72,6.181a4.9,4.9,0,0,0-.546,2.04v.385a4.687,4.687,0,0,0,4.69,4.5,4.717,4.717,0,0,0,4.289-2.763A5.87,5.87,0,0,0,69.571,8.4,4.745,4.745,0,0,0,67.9,4.848,4.676,4.676,0,0,0,64.864,3.723ZM47.877,16.717h-.069a8.665,8.665,0,0,1-1.8-.184,7.813,7.813,0,0,1-1.661-.554,8.206,8.206,0,0,1-1.522-.925,9.91,9.91,0,0,1-1.385-1.3,9.046,9.046,0,0,1-1.487-2.578,8.257,8.257,0,0,1-.118-5.268,9.309,9.309,0,0,1,1.123-2.328A10.119,10.119,0,0,1,42.4,2.012,8.239,8.239,0,0,1,44.04.893a7.911,7.911,0,0,1,1.838-.67A9.069,9.069,0,0,1,47.911,0a8.176,8.176,0,0,1,1.595.155,7.822,7.822,0,0,1,1.506.463,9.228,9.228,0,0,1,2.752,1.844A9.058,9.058,0,0,1,55.6,5.234a8.171,8.171,0,0,1,.609,3.133,8.482,8.482,0,0,1-.168,1.7,7.873,7.873,0,0,1-.505,1.587,8.444,8.444,0,0,1-.844,1.481,10.284,10.284,0,0,1-1.185,1.379,8.736,8.736,0,0,1-2.647,1.657A8.175,8.175,0,0,1,47.877,16.717Zm-.12-13.394A4.942,4.942,0,0,0,43.59,5.682a4.789,4.789,0,0,0-.757,2.41V8.3l-.052.052.052.017v.241a5.028,5.028,0,0,0,1.928,3.753,5.215,5.215,0,0,0,3.064,1.033,5.006,5.006,0,0,0,4.115-2.118,5.01,5.01,0,0,0-1.463-7.214A5.55,5.55,0,0,0,47.756,3.323ZM38.777,16.158h-3.1V6.873A3.17,3.17,0,0,0,33.492,3.8a4.417,4.417,0,0,0-.948-.145,3.145,3.145,0,0,0-2.907,1.96A4.382,4.382,0,0,0,29.4,7.194v8.963H26.28V6.712a3.162,3.162,0,0,0-1.8-2.779,4.115,4.115,0,0,0-1.365-.273A3.232,3.232,0,0,0,20.3,5.475a3.862,3.862,0,0,0-.257,1.253v9.429H16.931V.56h3.116v.819h.032A6.215,6.215,0,0,1,23.18.56a6.05,6.05,0,0,1,2.518.53,6.816,6.816,0,0,1,2.156,1.59A6.5,6.5,0,0,1,30,1.09,6.347,6.347,0,0,1,32.609.56a6.245,6.245,0,0,1,4.546,2.008,6.625,6.625,0,0,1,1.215,2,6.487,6.487,0,0,1,.408,2.3v9.285Zm-23.179,0H12.5V14.631A8.932,8.932,0,0,1,10.3,15.774a6.859,6.859,0,0,1-2.241.384H7.646a7.512,7.512,0,0,1-1.7-.19,7.069,7.069,0,0,1-1.578-.573,7.871,7.871,0,0,1-1.458-.958,10.061,10.061,0,0,1-1.337-1.347A8.838,8.838,0,0,1,.4,10.8,7.664,7.664,0,0,1,0,8.367,8.051,8.051,0,0,1,.21,6.511,7.266,7.266,0,0,1,.839,4.824,7.836,7.836,0,0,1,1.884,3.306,9.849,9.849,0,0,1,3.341,1.957,8.268,8.268,0,0,1,5.5.909,7.8,7.8,0,0,1,7.823.559a7.658,7.658,0,0,1,2.41.384,8.293,8.293,0,0,1,2.217,1.143H12.5V.559h3.1ZM7.791,3.66A4.67,4.67,0,0,0,4,5.636,4.759,4.759,0,0,0,3.116,8.35a4.686,4.686,0,0,0,4.626,4.707h.209a4.632,4.632,0,0,0,3.695-1.976A4.72,4.72,0,0,0,12.5,8.527V8.3a4.632,4.632,0,0,0-2.329-3.984A4.848,4.848,0,0,0,7.791,3.66Z" transform="translate(0 0)" fill="#3350cb" stroke="rgba(0,0,0,0)" stroke-miterlimit="10" stroke-width="1"/>
      </g>
    </g>
    <path id="Path_114850" data-name="Path 114850" d="M8.647-48.785A1.205,1.205,0,0,1,7.415-50.31,1.769,1.769,0,0,1,9.16-51.8a1.182,1.182,0,0,1,1.232,1.488A1.8,1.8,0,0,1,8.647-48.785Zm-.256,1.452a3.58,3.58,0,0,0,3.476-2.976,2.343,2.343,0,0,0-2.44-2.952A3.558,3.558,0,0,0,5.939-50.31,2.373,2.373,0,0,0,8.391-47.334Zm7.087-3.147a1.438,1.438,0,0,1,1.488-1.33c.646,0,1,.439.854,1.269l-.537,3.1h1.488l.585-3.367c.281-1.622-.354-2.452-1.683-2.452a2.389,2.389,0,0,0-1.866.964l.146-.842H14.466l-1,5.7h1.488Zm5.66,3.037h1.488l1.549-8.795H22.687Zm6.4-5.7H26.066l-1,5.7h1.476Zm-1.305-2.208a.757.757,0,0,0,.805.9,1.113,1.113,0,0,0,1.1-.9.741.741,0,0,0-.781-.89A1.154,1.154,0,0,0,26.237-55.348Zm4.757,4.867a1.438,1.438,0,0,1,1.488-1.33c.646,0,1,.439.854,1.269l-.537,3.1h1.488l.585-3.367c.281-1.622-.354-2.452-1.683-2.452a2.389,2.389,0,0,0-1.866.964l.146-.842H29.981l-1,5.7h1.488Zm11.637.171a2.3,2.3,0,0,0-2.366-2.952,3.546,3.546,0,0,0-3.476,2.952,2.367,2.367,0,0,0,2.427,2.988,3.509,3.509,0,0,0,2.9-1.378c-.342-.2-.7-.415-1.025-.61a1.936,1.936,0,0,1-1.561.732c-.842,0-1.4-.451-1.354-1.22h4.342C42.557-49.932,42.594-50.163,42.63-50.31Zm-4.281-.5a1.727,1.727,0,0,1,1.708-1.208,1.1,1.1,0,0,1,1.22,1.208Z" transform="translate(250.383 509.871)" fill="#3350cb"/>
  </g>
</svg>
