<svg xmlns="http://www.w3.org/2000/svg" width="616.597" height="170.28" viewBox="0 0 616.597 170.28">
  <g id="Group_37880" data-name="Group 37880" transform="translate(-215 -435.5)">
    <g id="Group_34753" data-name="Group 34753" transform="translate(170.924 360.213)">
      <path id="Path_56598" data-name="Path 56598" d="M144.529,185.079l-38.449,82.432a1.568,1.568,0,0,0,2.692,1.581l37.551-51.983a5.527,5.527,0,0,1,9.649,1.275L184.892,294.6H82.523a7.147,7.147,0,0,1-6.441-10.248L138.766,154.16a15.265,15.265,0,0,1,27.5-.025L234.215,294.6h-22.3l-49.4-109.412A9.9,9.9,0,0,0,144.529,185.079Z" transform="translate(-31.289 -69.732)" fill="#f2ff33"/>
      <g id="Group_34751" data-name="Group 34751" transform="translate(195.473 75.787)">
        <path id="Subtraction_203" data-name="Subtraction 203" d="M414.779,143.171a59.416,59.416,0,0,1-15.292-1.862,44.018,44.018,0,0,1-12.75-5.637l12.738-15.819a31.788,31.788,0,0,0,15.407,3.493c13.4,0,22.593-5.944,27.323-17.668a49.231,49.231,0,0,0,2.537-11.813h-.175a49.161,49.161,0,0,1-29.686,9.86h-.616a49.843,49.843,0,0,1-11.673-1.348,45.83,45.83,0,0,1-10.681-4.045,50.727,50.727,0,0,1-9.7-6.741,65.431,65.431,0,0,1-8.726-9.438c-5.737-9.284-8.526-17.953-8.526-26.5v-3.7a43.536,43.536,0,0,1,3.313-16.564A58.433,58.433,0,0,1,378.212,19.6,53.842,53.842,0,0,1,395.147,7.811a50.684,50.684,0,0,1,35.181-1.464,52.027,52.027,0,0,1,14.239,7.4h.309V3.882H464.7V90.27a69.33,69.33,0,0,1-1.269,13.521,54.254,54.254,0,0,1-3.8,11.9,49.126,49.126,0,0,1-6.325,10.285,53.047,53.047,0,0,1-8.839,8.667,51.235,51.235,0,0,1-13.88,6.381A57.061,57.061,0,0,1,414.779,143.171Zm0-119.362c-11.041,0-19.957,5.288-26.5,15.716-2.35,5.02-3.492,9.288-3.492,13.046v2.465c0,8.252,3.905,15.821,11.607,22.5A29.8,29.8,0,0,0,414.779,83.8c11.777,0,21-5.944,27.426-17.668,1.8-4.967,2.671-9.033,2.671-12.429,0-8.488-3.594-16.126-10.683-22.7A29.9,29.9,0,0,0,414.779,23.809ZM306.154,106.9h-.44a55.412,55.412,0,0,1-11.52-1.178,49.959,49.959,0,0,1-10.622-3.542,52.472,52.472,0,0,1-9.734-5.915,63.373,63.373,0,0,1-8.857-8.3,57.847,57.847,0,0,1-9.509-16.486,52.8,52.8,0,0,1-.757-33.689A59.525,59.525,0,0,1,261.9,22.9a64.711,64.711,0,0,1,9.225-10.034,52.686,52.686,0,0,1,10.495-7.154,50.586,50.586,0,0,1,11.754-4.285,57.993,57.993,0,0,1,13-1.426,52.282,52.282,0,0,1,10.2.989A50.021,50.021,0,0,1,326.2,3.95a59.007,59.007,0,0,1,17.6,11.794,57.925,57.925,0,0,1,11.738,17.724,52.249,52.249,0,0,1,3.894,20.037,54.242,54.242,0,0,1-1.075,10.863,50.341,50.341,0,0,1-3.232,10.151,54,54,0,0,1-5.4,9.47,65.762,65.762,0,0,1-7.577,8.82,55.862,55.862,0,0,1-16.926,10.6A52.276,52.276,0,0,1,306.154,106.9Zm-.77-85.651c-10.678,0-19.393,4.934-26.642,15.083-3.214,5.429-4.844,10.614-4.844,15.413v1.321l-.33.33.33.11v1.541c0,8.617,4.148,16.692,12.33,24,6.334,4.445,12.744,6.606,19.6,6.606,10.556,0,19.408-4.556,26.311-13.541a32.618,32.618,0,0,0,6.055-18.606c0-11.082-5.186-20.343-15.413-27.523A35.489,35.489,0,0,0,305.384,21.248Zm-57.42,82.073H228.139V43.948c0-9.105-4.7-15.706-13.97-19.62a28.246,28.246,0,0,0-6.061-.924c-8.128,0-14.383,4.216-18.591,12.532A28.022,28.022,0,0,0,187.977,46V103.32H168.049v-60.4c0-7.313-3.87-13.293-11.5-17.771a26.317,26.317,0,0,0-8.732-1.746c-7.307,0-13.354,3.905-17.976,11.607a24.7,24.7,0,0,0-1.643,8.013v60.3H108.267V3.578h19.927V8.817h.205a39.742,39.742,0,0,1,19.825-5.239,38.689,38.689,0,0,1,16.1,3.39,43.583,43.583,0,0,1,13.79,10.169,41.534,41.534,0,0,1,13.739-10.17,40.584,40.584,0,0,1,16.666-3.39c10.871,0,20.651,4.32,29.069,12.84a42.361,42.361,0,0,1,7.768,12.8,41.483,41.483,0,0,1,2.606,14.728V103.32Zm-148.223,0H79.916V93.561a57.116,57.116,0,0,1-14.021,7.306,43.862,43.862,0,0,1-14.329,2.452H48.9A48.035,48.035,0,0,1,38.032,102.1,45.2,45.2,0,0,1,27.94,98.441a50.33,50.33,0,0,1-9.322-6.128A64.335,64.335,0,0,1,10.067,83.7,56.517,56.517,0,0,1,2.53,69.063,49.01,49.01,0,0,1,0,53.5,51.482,51.482,0,0,1,1.346,41.636,46.465,46.465,0,0,1,5.368,30.85a50.109,50.109,0,0,1,6.68-9.707,62.978,62.978,0,0,1,9.318-8.629,52.873,52.873,0,0,1,13.79-6.7A49.883,49.883,0,0,1,50.025,3.577,48.969,48.969,0,0,1,65.432,6.03a53.03,53.03,0,0,1,14.175,7.306h.308V3.577H99.741ZM49.82,23.4c-9.542,0-17.7,4.251-24.242,12.635A30.431,30.431,0,0,0,19.929,53.4c0,11.153,5.357,20.1,15.921,26.6a29.892,29.892,0,0,0,13.662,3.493h1.335c9.031,0,16.98-4.251,23.625-12.635,3.612-5.573,5.444-11.068,5.444-16.332V53.089c0-10.383-5.011-18.953-14.894-25.474A31,31,0,0,0,49.82,23.4Z" transform="translate(0 0)" fill="#f2ff33" stroke="rgba(0,0,0,0)" stroke-miterlimit="10" stroke-width="1"/>
      </g>
    </g>
    <path id="Path_114850" data-name="Path 114850" d="M23.556-8.58c-5.226,0-8.892-3.822-7.878-9.75a11.314,11.314,0,0,1,11.154-9.516c5.226,0,8.892,3.666,7.878,9.516A11.518,11.518,0,0,1,23.556-8.58ZM21.918.7A22.891,22.891,0,0,0,44.148-18.33c2.106-11.544-5.3-18.876-15.6-18.876A22.752,22.752,0,0,0,6.24-18.33C4.134-6.864,11.622.7,21.918.7ZM67.236-19.422c1.248-6.318,5.148-8.5,9.516-8.5,4.134,0,6.4,2.808,5.46,8.112L78.78,0H88.3L92.04-21.528C93.834-31.9,89.778-37.206,81.276-37.206a15.274,15.274,0,0,0-11.934,6.162l.936-5.382H60.762L54.366,0h9.516ZM103.428,0h9.516l9.906-56.238h-9.516Zm40.95-36.426H134.94L128.544,0h9.438Zm-8.346-14.118c-.546,3.354,1.794,5.772,5.148,5.772a7.114,7.114,0,0,0,7.02-5.772c.546-3.2-1.638-5.694-4.992-5.694A7.376,7.376,0,0,0,136.032-50.544Zm30.42,31.122c1.248-6.318,5.148-8.5,9.516-8.5,4.134,0,6.4,2.808,5.46,8.112L178,0h9.516l3.744-21.528c1.794-10.374-2.262-15.678-10.764-15.678a15.274,15.274,0,0,0-11.934,6.162l.936-5.382h-9.516L153.582,0H163.1Zm74.412,1.092c2.106-11.544-4.836-18.876-15.132-18.876A22.673,22.673,0,0,0,203.5-18.33C201.4-6.942,208.65.78,219.024.78c6.708,0,14.2-2.574,18.564-8.814-2.184-1.248-4.446-2.652-6.552-3.9-2.184,3.12-6.318,4.68-9.984,4.68-5.382,0-8.97-2.886-8.658-7.8h27.768C240.4-15.912,240.63-17.394,240.864-18.33Zm-27.378-3.2a11.044,11.044,0,0,1,10.92-7.722c4.68,0,8.034,2.73,7.8,7.722Z" transform="translate(473 605)" fill="#f2ff33"/>
  </g>
</svg>
