<svg width="42" height="42" viewBox="0 0 42 42" fill="none" xmlns="http://www.w3.org/2000/svg">
<rect opacity="0.15" width="42" height="42" rx="10" fill="#C39A6B"/>
<path d="M25.75 12.56V11C25.75 10.59 25.41 10.25 25 10.25C24.59 10.25 24.25 10.59 24.25 11V12.5H17.75V11C17.75 10.59 17.41 10.25 17 10.25C16.59 10.25 16.25 10.59 16.25 11V12.56C13.55 12.81 12.24 14.42 12.04 16.81C12.02 17.1 12.26 17.34 12.54 17.34H29.46C29.75 17.34 29.99 17.09 29.96 16.81C29.76 14.42 28.45 12.81 25.75 12.56Z" fill="#C39A6B"/>
<path d="M29 18.8398H13C12.45 18.8398 12 19.2898 12 19.8398V25.9998C12 28.9998 13.5 30.9998 17 30.9998H25C28.5 30.9998 30 28.9998 30 25.9998V19.8398C30 19.2898 29.55 18.8398 29 18.8398ZM18.21 27.2098C18.16 27.2498 18.11 27.2998 18.06 27.3298C18 27.3698 17.94 27.3998 17.88 27.4198C17.82 27.4498 17.76 27.4698 17.7 27.4798C17.63 27.4898 17.57 27.4998 17.5 27.4998C17.37 27.4998 17.24 27.4698 17.12 27.4198C16.99 27.3698 16.89 27.2998 16.79 27.2098C16.61 27.0198 16.5 26.7598 16.5 26.4998C16.5 26.2398 16.61 25.9798 16.79 25.7898C16.89 25.6998 16.99 25.6298 17.12 25.5798C17.3 25.4998 17.5 25.4798 17.7 25.5198C17.76 25.5298 17.82 25.5498 17.88 25.5798C17.94 25.5998 18 25.6298 18.06 25.6698C18.11 25.7098 18.16 25.7498 18.21 25.7898C18.39 25.9798 18.5 26.2398 18.5 26.4998C18.5 26.7598 18.39 27.0198 18.21 27.2098ZM18.21 23.7098C18.02 23.8898 17.76 23.9998 17.5 23.9998C17.24 23.9998 16.98 23.8898 16.79 23.7098C16.61 23.5198 16.5 23.2598 16.5 22.9998C16.5 22.7398 16.61 22.4798 16.79 22.2898C17.07 22.0098 17.51 21.9198 17.88 22.0798C18.01 22.1298 18.12 22.1998 18.21 22.2898C18.39 22.4798 18.5 22.7398 18.5 22.9998C18.5 23.2598 18.39 23.5198 18.21 23.7098ZM21.71 27.2098C21.52 27.3898 21.26 27.4998 21 27.4998C20.74 27.4998 20.48 27.3898 20.29 27.2098C20.11 27.0198 20 26.7598 20 26.4998C20 26.2398 20.11 25.9798 20.29 25.7898C20.66 25.4198 21.34 25.4198 21.71 25.7898C21.89 25.9798 22 26.2398 22 26.4998C22 26.7598 21.89 27.0198 21.71 27.2098ZM21.71 23.7098C21.66 23.7498 21.61 23.7898 21.56 23.8298C21.5 23.8698 21.44 23.8998 21.38 23.9198C21.32 23.9498 21.26 23.9698 21.2 23.9798C21.13 23.9898 21.07 23.9998 21 23.9998C20.74 23.9998 20.48 23.8898 20.29 23.7098C20.11 23.5198 20 23.2598 20 22.9998C20 22.7398 20.11 22.4798 20.29 22.2898C20.38 22.1998 20.49 22.1298 20.62 22.0798C20.99 21.9198 21.43 22.0098 21.71 22.2898C21.89 22.4798 22 22.7398 22 22.9998C22 23.2598 21.89 23.5198 21.71 23.7098ZM25.21 27.2098C25.02 27.3898 24.76 27.4998 24.5 27.4998C24.24 27.4998 23.98 27.3898 23.79 27.2098C23.61 27.0198 23.5 26.7598 23.5 26.4998C23.5 26.2398 23.61 25.9798 23.79 25.7898C24.16 25.4198 24.84 25.4198 25.21 25.7898C25.39 25.9798 25.5 26.2398 25.5 26.4998C25.5 26.7598 25.39 27.0198 25.21 27.2098ZM25.21 23.7098C25.16 23.7498 25.11 23.7898 25.06 23.8298C25 23.8698 24.94 23.8998 24.88 23.9198C24.82 23.9498 24.76 23.9698 24.7 23.9798C24.63 23.9898 24.56 23.9998 24.5 23.9998C24.24 23.9998 23.98 23.8898 23.79 23.7098C23.61 23.5198 23.5 23.2598 23.5 22.9998C23.5 22.7398 23.61 22.4798 23.79 22.2898C23.89 22.1998 23.99 22.1298 24.12 22.0798C24.3 21.9998 24.5 21.9798 24.7 22.0198C24.76 22.0298 24.82 22.0498 24.88 22.0798C24.94 22.0998 25 22.1298 25.06 22.1698C25.11 22.2098 25.16 22.2498 25.21 22.2898C25.39 22.4798 25.5 22.7398 25.5 22.9998C25.5 23.2598 25.39 23.5198 25.21 23.7098Z" fill="#C39A6B"/>
</svg>
