<svg width="36" height="36" viewBox="0 0 36 36" fill="none" xmlns="http://www.w3.org/2000/svg">
<rect width="36" height="36" rx="18" fill="#58C489"/>
<path d="M21.3333 17.166C21.4981 17.166 21.6593 17.2149 21.7963 17.3065C21.9333 17.398 22.0401 17.5282 22.1032 17.6804C22.1663 17.8327 22.1828 18.0003 22.1506 18.1619C22.1185 18.3236 22.0391 18.4721 21.9226 18.5886C21.806 18.7051 21.6575 18.7845 21.4959 18.8167C21.3342 18.8488 21.1667 18.8323 21.0144 18.7692C20.8621 18.7062 20.732 18.5994 20.6404 18.4623C20.5489 18.3253 20.5 18.1642 20.5 17.9993C20.5 17.7783 20.5878 17.5664 20.7441 17.4101C20.9003 17.2538 21.1123 17.166 21.3333 17.166ZM18 17.166C18.1648 17.166 18.3259 17.2149 18.463 17.3065C18.6 17.398 18.7068 17.5282 18.7699 17.6804C18.833 17.8327 18.8495 18.0003 18.8173 18.1619C18.7852 18.3236 18.7058 18.4721 18.5892 18.5886C18.4727 18.7051 18.3242 18.7845 18.1626 18.8167C18.0009 18.8488 17.8334 18.8323 17.6811 18.7692C17.5288 18.7062 17.3987 18.5994 17.3071 18.4623C17.2155 18.3253 17.1667 18.1642 17.1667 17.9993C17.1667 17.7783 17.2545 17.5664 17.4107 17.4101C17.567 17.2538 17.779 17.166 18 17.166ZM14.6667 17.166C14.8315 17.166 14.9926 17.2149 15.1296 17.3065C15.2667 17.398 15.3735 17.5282 15.4366 17.6804C15.4996 17.8327 15.5161 18.0003 15.484 18.1619C15.4518 18.3236 15.3725 18.4721 15.2559 18.5886C15.1394 18.7051 14.9909 18.7845 14.8292 18.8167C14.6676 18.8488 14.5 18.8323 14.3478 18.7692C14.1955 18.7062 14.0653 18.5994 13.9738 18.4623C13.8822 18.3253 13.8333 18.1642 13.8333 17.9993C13.8333 17.7783 13.9211 17.5664 14.0774 17.4101C14.2337 17.2538 14.4456 17.166 14.6667 17.166ZM18 9.66602C19.0943 9.66602 20.178 9.88156 21.189 10.3004C22.2001 10.7191 23.1187 11.333 23.8925 12.1068C25.4553 13.6696 26.3333 15.7892 26.3333 17.9993C26.3406 19.9236 25.6743 21.7898 24.45 23.2743L26.1167 24.941C26.2323 25.0582 26.3106 25.207 26.3418 25.3687C26.3729 25.5303 26.3555 25.6976 26.2917 25.8493C26.2224 25.9993 26.1102 26.1253 25.9693 26.2113C25.8283 26.2974 25.665 26.3396 25.5 26.3327H18C15.7899 26.3327 13.6702 25.4547 12.1074 23.8919C10.5446 22.3291 9.66666 20.2095 9.66666 17.9993C9.66666 15.7892 10.5446 13.6696 12.1074 12.1068C13.6702 10.544 15.7899 9.66602 18 9.66602ZM18 24.666H23.4917L22.7167 23.891C22.6379 23.8138 22.5753 23.7218 22.5324 23.6202C22.4894 23.5187 22.4671 23.4096 22.4667 23.2993C22.4698 23.0795 22.5596 22.8699 22.7167 22.716C23.8078 21.626 24.4873 20.1915 24.6394 18.6567C24.7915 17.1219 24.4067 15.5819 23.5506 14.299C22.6946 13.016 21.4202 12.0696 19.9446 11.621C18.469 11.1723 16.8834 11.2492 15.4581 11.8384C14.0328 12.4277 12.8559 13.4929 12.128 14.8526C11.4 16.2123 11.1659 17.7823 11.4657 19.2952C11.7655 20.8081 12.5806 22.1702 13.772 23.1495C14.9635 24.1289 16.4577 24.6648 18 24.666Z" fill="white"/>
</svg>
