<svg width="80" height="80" viewBox="0 0 80 80" fill="none" xmlns="http://www.w3.org/2000/svg">
<g clip-path="url(#clip0_33_1403)">
<path d="M41.4738 59.933C41.465 59.9418 41.4606 59.9505 41.4606 59.9637C41.4034 59.9945 41.3858 60.0429 41.399 60.1044V60.1C41.3153 60.1044 41.2317 60.1176 41.1481 60.1176C40.1621 60.1176 39.1761 60.1132 38.19 60.1088C38.1812 60.0912 38.1724 60.0692 38.168 60.0516C38.1812 60.0165 38.168 59.9901 38.1328 59.9769C38.1284 59.9593 38.1196 59.9418 38.1108 59.9286C38.124 59.8055 38.058 59.7044 38.0008 59.6077C37.9788 59.5285 37.9568 59.445 37.9303 59.3659C37.4329 58.012 36.9311 56.6581 36.4337 55.3041C35.4829 52.7238 34.5277 50.1434 33.577 47.563C32.6922 45.1629 31.803 42.7584 30.9183 40.3583C29.8618 37.501 28.8054 34.6481 27.7534 31.7908C26.8114 29.2412 25.8738 26.6872 24.9318 24.1376C23.7345 20.8935 22.5328 17.6537 21.3355 14.414C20.4376 11.9831 19.544 9.54777 18.646 7.11687C18.6196 7.04214 18.6152 6.94983 18.5404 6.89268C18.5536 6.78279 18.4964 6.68608 18.4568 6.58937C17.7173 4.57168 16.9734 2.55838 16.2294 0.540685C16.1898 0.435185 16.1326 0.33408 16.137 0.197809C16.2559 0.197809 16.3571 0.197809 16.4627 0.197809C21.3708 0.197809 26.2832 0.197809 31.1912 0.197809C31.5477 0.197809 31.5345 0.127476 31.6049 0.536289C31.8691 2.01769 32.142 3.49909 32.4149 4.98049C32.679 6.42233 32.9475 7.85977 33.2116 9.30161C33.4537 10.6292 33.6914 11.9567 33.9335 13.2798C34.1536 14.4931 34.3825 15.702 34.6026 16.9152C34.8227 18.1285 35.0428 19.3417 35.2628 20.555C35.4829 21.7682 35.7118 22.9771 35.9319 24.1903C36.152 25.4036 36.3721 26.6168 36.5922 27.8301C36.8343 29.1576 37.0808 30.4808 37.3229 31.8083C37.543 33.0216 37.7631 34.2348 37.9832 35.4481C38.2253 36.7756 38.4718 38.0988 38.7139 39.4263C38.9163 40.5253 39.1144 41.6243 39.3125 42.7232C39.3345 42.8463 39.3609 42.9694 39.3873 43.0969C39.4886 43.0881 39.4886 43.0046 39.515 42.943C39.9772 41.8704 40.435 40.7934 40.8972 39.7209C45.7744 28.3136 50.6516 16.9064 55.5332 5.4948C56.2683 3.78042 56.999 2.06604 57.7341 0.351664C57.7649 0.285726 57.7957 0.215393 57.8177 0.149455C57.8441 0.0791213 57.8925 0.0527462 57.963 0.0483504C58.0158 0.0483504 58.0686 0.0483504 58.1214 0.0483504C60.5072 0.0351628 62.893 0.0219753 65.2787 0.0131836C65.3536 0.0131836 65.424 0.0131836 65.4988 0.0131836C65.5252 0.153851 65.4504 0.250559 65.4108 0.35606C64.7109 2.10561 64.0022 3.85515 63.2979 5.6047C63.1571 5.95637 63.0162 6.30804 62.8754 6.6597C62.8446 6.73883 62.8049 6.81356 62.8137 6.90147C62.7125 6.98939 62.6905 7.12127 62.6465 7.23556C61.2467 10.7039 59.8513 14.1766 58.456 17.6493C57.3379 20.4275 56.2198 23.2013 55.1018 25.9794C53.8341 29.1269 52.5663 32.2743 51.2986 35.4261C50.0133 38.6219 48.7236 41.8177 47.4338 45.0179C45.9944 48.5961 44.5551 52.1743 43.1157 55.7525C42.5919 57.0537 42.068 58.3549 41.5442 59.6516C41.509 59.7308 41.443 59.8231 41.4738 59.933ZM40.7827 48.1873C40.8003 47.8488 40.633 47.5762 40.457 47.4312C40.1312 47.1586 39.7263 47.1498 39.3873 47.4312C38.9428 47.8004 38.9428 48.5697 39.3829 48.9477C39.6955 49.2159 40.14 49.2203 40.4526 48.9477C40.6771 48.7411 40.7871 48.4906 40.7827 48.1873ZM40.7827 52.7721C40.7871 52.5172 40.7167 52.3018 40.5582 52.1128C40.2413 51.7215 39.647 51.7039 39.3081 52.0776C38.934 52.4908 38.9736 53.159 39.3917 53.5238C39.6955 53.7876 40.1268 53.792 40.435 53.5326C40.6639 53.3348 40.7827 53.0886 40.7827 52.7721Z" fill="#231E1E"/>
<path d="M18.5316 6.88818C18.6064 6.94533 18.6108 7.03325 18.6372 7.11237C19.5352 9.54328 20.4288 11.9786 21.3267 14.4095C22.524 17.6536 23.7257 20.8933 24.923 24.1331C25.865 26.6827 26.8026 29.2367 27.7446 31.7863C28.7966 34.6436 29.8574 37.5009 30.9095 40.3538C31.7986 42.7539 32.6834 45.1584 33.5682 47.5586C34.5189 50.1389 35.4741 52.7193 36.4249 55.2996C36.9267 56.6536 37.4241 58.0075 37.9215 59.3614C37.9524 59.4405 37.97 59.524 37.992 59.6032C37.97 59.6032 37.9479 59.6076 37.9259 59.6076C37.8731 59.5152 37.8203 59.4229 37.7763 59.3306C37.0192 57.8228 36.2621 56.3151 35.5049 54.8073C32.8859 49.5982 30.2668 44.3891 27.6477 39.1801C25.0375 33.9754 22.4228 28.7751 19.8081 23.5748C18.2455 20.467 16.6784 17.3591 15.1158 14.2512C15.0674 14.1589 15.019 14.0622 14.9661 13.9699C14.9573 13.9567 14.9309 13.9479 14.9133 13.9523C14.9001 13.9567 14.8781 13.9787 14.8781 13.9963C14.8737 14.0798 14.8693 14.1633 14.8693 14.2468C14.8693 23.7506 14.8693 33.2501 14.8693 42.7539C14.8693 43.321 14.8825 43.8924 14.9265 44.4595C14.9749 45.1189 15.0454 45.7826 15.2258 46.4244C15.2699 46.5871 15.3183 46.7497 15.3755 46.908C15.5956 47.541 15.9962 48.0201 16.586 48.3542C17.2155 48.7147 17.8889 48.952 18.5932 49.0927C19.2139 49.2202 19.8433 49.2729 20.4772 49.3037C21.2563 49.3389 22.0398 49.3213 22.819 49.3345C22.9158 49.3345 23.0082 49.3345 23.1051 49.3433C23.1623 49.3477 23.2019 49.3872 23.2063 49.4444C23.2063 49.7609 23.2107 50.0774 23.2063 50.3939C23.2063 50.4554 23.1667 50.4906 23.1095 50.495C23.0038 50.4994 22.8982 50.5038 22.7925 50.5038C17.7745 50.5038 12.7608 50.5038 7.74277 50.5038C6.20214 50.5038 4.6571 50.5038 3.11647 50.5038C2.7027 50.5038 2.74232 50.5345 2.73792 50.1301C2.73792 49.9411 2.73352 49.7521 2.73792 49.5587C2.74232 49.3477 2.75112 49.3389 2.9492 49.3345C3.08566 49.3301 3.22212 49.3345 3.36297 49.3345C3.62708 49.3345 3.89119 49.3301 4.1553 49.3345C4.76715 49.3477 5.379 49.3213 5.99085 49.2773C6.95045 49.207 7.89243 49.0224 8.77279 48.6048C9.18656 48.4069 9.56071 48.1608 9.90406 47.8575C10.2386 47.5629 10.4499 47.1937 10.5995 46.7805C10.758 46.3409 10.846 45.8881 10.9165 45.431C11.0353 44.6265 11.0573 43.8177 11.0573 43.0045C11.0573 33.4831 11.0573 23.9573 11.0573 14.4359C11.0573 14.1194 11.0617 13.8028 11.0397 13.4863C10.9869 12.6643 10.8813 11.8511 10.5995 11.0686C10.3354 10.3389 9.89525 9.75867 9.23938 9.33667C8.5395 8.8839 7.78239 8.58059 6.96805 8.40915C6.30778 8.26848 5.63871 8.19815 4.96523 8.141C4.34458 8.08825 3.71952 8.09265 3.09887 8.07946C3.01523 8.07506 2.9316 8.07506 2.84796 8.07067C2.78634 8.06627 2.74672 8.02671 2.74672 7.96956C2.74232 7.64427 2.74672 7.31458 2.74672 6.98929C2.74672 6.92775 2.78634 6.89258 2.84796 6.88818C2.90959 6.88379 2.97562 6.88379 3.03724 6.88379C8.16974 6.88379 13.3022 6.88379 18.4348 6.88379C18.47 6.88379 18.5008 6.88818 18.5316 6.88818Z" fill="#C3996A"/>
<path d="M41.4738 59.9329C41.443 59.8186 41.509 59.7263 41.5486 59.6339C42.0724 58.3328 42.5963 57.0316 43.1201 55.7348C44.5595 52.1566 45.9988 48.5784 47.4382 45.0002C48.7236 41.8044 50.0133 38.6042 51.303 35.4084C52.5707 32.261 53.8385 29.1136 55.1062 25.9618C56.2242 23.1836 57.3423 20.4098 58.4604 17.6316C59.8557 14.1589 61.2511 10.6906 62.6509 7.21788C62.6949 7.10359 62.7169 6.97171 62.8181 6.88379C62.9326 6.8794 63.0514 6.87061 63.1659 6.87061C67.6029 6.87061 72.0355 6.87061 76.4725 6.87061C76.5694 6.87061 76.6618 6.87061 76.7587 6.875C76.8335 6.8794 76.8775 6.92336 76.8775 6.99369C76.8819 7.3014 76.8819 7.60471 76.8775 7.91242C76.8775 8.00034 76.8335 8.0355 76.7322 8.0399C76.4461 8.05309 76.1644 8.06628 75.8783 8.07507C75.5834 8.08386 75.2884 8.07946 74.9935 8.09705C74.0163 8.16738 73.0391 8.2509 72.0927 8.53224C71.4017 8.73884 70.7502 9.03776 70.1648 9.46415C69.6321 9.85099 69.2756 10.3565 69.0467 10.9631C68.8486 11.4862 68.7298 12.0313 68.6593 12.5896C68.5669 13.3105 68.5405 14.0358 68.5405 14.7655C68.5405 24.0452 68.5405 33.3248 68.5405 42.6088C68.5405 42.9473 68.5317 43.2858 68.5493 43.6199C68.5933 44.4947 68.6285 45.3694 68.8442 46.2222C68.8838 46.3761 68.9322 46.5255 68.9763 46.6794C69.1479 47.2684 69.5001 47.7256 69.9887 48.0948C70.6049 48.5608 71.3048 48.8509 72.0487 49.0312C72.7178 49.1938 73.3957 49.2773 74.0824 49.3037C74.9143 49.3389 75.7506 49.3345 76.5826 49.3389C76.6354 49.3389 76.6882 49.3389 76.741 49.3433C76.8423 49.3521 76.8819 49.3828 76.8819 49.4751C76.8863 49.7829 76.8819 50.0862 76.8775 50.3939C76.8775 50.4686 76.8247 50.5038 76.7542 50.5082C76.6794 50.5126 76.6046 50.5126 76.5342 50.5126C69.9315 50.5126 63.3332 50.5126 56.7304 50.5126C56.3695 50.5126 56.3783 50.5258 56.3783 50.1741C56.3783 49.9631 56.3739 49.7521 56.3783 49.5411C56.3827 49.3652 56.4003 49.3477 56.5852 49.3433C56.6468 49.3433 56.7128 49.3433 56.7745 49.3433C57.0694 49.3433 57.3643 49.3389 57.6636 49.3433C58.3283 49.3565 58.993 49.3301 59.6576 49.2861C60.6084 49.2202 61.5416 49.0487 62.422 48.6663C62.8005 48.5037 63.1527 48.2927 63.4784 48.0377C63.7161 47.8531 63.8878 47.6157 64.0286 47.3519C64.2531 46.9299 64.3808 46.4728 64.4732 46.0068C64.5921 45.4178 64.6405 44.8199 64.6845 44.2221C64.7329 43.5276 64.7241 42.833 64.7241 42.1341C64.7241 32.8413 64.7241 23.5528 64.7241 14.26C64.7241 14.1545 64.7241 14.049 64.7241 13.9435C64.6273 13.9171 64.6229 14.0051 64.6009 14.049C64.2883 14.66 63.9846 15.2711 63.6765 15.8865C60.7317 21.7461 57.7869 27.6058 54.8421 33.4699C52.1438 38.8416 49.4411 44.2089 46.7428 49.5806C45.0525 52.9435 43.3622 56.3063 41.6675 59.6691C41.6147 59.757 41.5926 59.8801 41.4738 59.9329Z" fill="#C39A6B"/>
<path d="M56.2154 0.0615234C56.1978 0.193399 56.1362 0.254941 56.0922 0.320878C54.8113 2.25505 53.5347 4.18922 52.2538 6.1234C52.2186 6.17615 52.1834 6.2289 52.1482 6.28165C52.1086 6.33879 52.0557 6.36517 51.9897 6.36077C51.9061 6.35637 51.8224 6.35638 51.7344 6.35638C51.0609 6.34319 50.3831 6.3344 49.7096 6.32121C49.6348 6.32121 49.5599 6.32121 49.4895 6.32121C49.4147 6.32121 49.375 6.36077 49.353 6.42671C49.3266 6.50583 49.3046 6.58935 49.2826 6.66848C47.3634 13.4776 45.4442 20.2912 43.525 27.1004C42.2441 31.6413 40.9676 36.1822 39.6867 40.7231C39.6471 40.8594 39.6295 41.0088 39.5238 41.1407C39.5458 40.8945 39.5634 40.6616 39.5898 40.433C39.6867 39.5098 39.7835 38.5867 39.8804 37.668C39.9552 36.9559 40.0212 36.2393 40.0916 35.5272C40.1665 34.8151 40.2413 34.103 40.3161 33.3908C40.391 32.6787 40.457 31.9666 40.5318 31.25C40.6066 30.5247 40.6859 29.8038 40.7607 29.0785C40.8311 28.3884 40.9016 27.6938 40.972 27.0037C41.0468 26.2608 41.1261 25.5135 41.2053 24.7706C41.2537 24.287 41.3021 23.8079 41.3506 23.3243C41.4298 22.5683 41.509 21.8166 41.5839 21.0605C41.6323 20.5901 41.6807 20.1154 41.7291 19.645C41.8083 18.8801 41.8876 18.1153 41.9668 17.3504C42.0416 16.6383 42.1077 15.9261 42.1825 15.2096C42.2573 14.4843 42.3322 13.7634 42.407 13.0381C42.4554 12.5545 42.5038 12.0754 42.5522 11.5918C42.6315 10.8357 42.7107 10.0841 42.7855 9.32797C42.8604 8.61584 42.9308 7.90371 43.0012 7.18719C43.032 6.87508 43.0629 6.55858 43.0937 6.25527C43.0276 6.17175 42.9484 6.19812 42.8824 6.19373C42.3101 6.19373 41.7423 6.19373 41.1701 6.19373C38.8987 6.19373 36.6274 6.19373 34.3605 6.19373C34.246 6.19373 34.1316 6.19373 33.9951 6.19373C33.6166 4.16285 33.2468 2.14955 32.8727 0.105482C40.6595 0.17142 48.4287 0.0791068 56.2154 0.0615234Z" fill="#231F1F"/>
<path d="M58.073 63.8673C57.8705 64.3421 57.6636 64.8124 57.4612 65.2872C56.5016 67.5335 55.5464 69.7797 54.5868 72.0304C54.5516 72.1183 54.5119 72.2062 54.4679 72.2898C54.4327 72.3513 54.3139 72.3469 54.283 72.281C54.2346 72.1755 54.1906 72.07 54.1422 71.9645C53.0417 69.4105 51.9413 66.8565 50.8408 64.3069C50.7968 64.2058 50.7484 64.1047 50.7 63.9992C50.6207 64.0388 50.6472 64.0959 50.6428 64.1399C50.6384 64.1926 50.6428 64.2454 50.6428 64.2981C50.6428 65.6784 50.6428 67.0631 50.6428 68.4434C50.6428 69.1731 50.6472 69.8984 50.656 70.6281C50.656 70.7952 50.6736 70.9622 50.7088 71.1293C50.832 71.6963 51.2106 72.0568 51.7828 72.1403C51.8577 72.1491 51.9281 72.1535 52.0029 72.1623C52.0337 72.1667 52.0689 72.1711 52.0909 72.1887C52.113 72.2062 52.1262 72.2414 52.1306 72.2678C52.1394 72.303 52.113 72.3293 52.0821 72.3337C52.0293 72.3425 51.9765 72.3381 51.9237 72.3381C50.9817 72.3381 50.0441 72.3381 49.1021 72.3381C49.0713 72.3381 49.0405 72.3381 49.0053 72.3381C48.882 72.3337 48.8248 72.3074 48.8336 72.2546C48.8556 72.1579 48.9393 72.1667 49.0097 72.1579C49.1153 72.1403 49.221 72.1359 49.3222 72.1095C49.8592 71.9733 50.1718 71.6304 50.2686 71.0853C50.317 70.8128 50.3346 70.5402 50.3346 70.2677C50.3346 69.3489 50.3346 68.4346 50.3346 67.5159C50.3346 66.6103 50.3346 65.7004 50.3346 64.7949C50.3346 64.5003 50.317 64.2058 50.2818 63.9113C50.2158 63.2959 49.8372 62.8871 49.1549 62.7772C49.0625 62.764 48.9701 62.7508 48.8776 62.7288C48.8556 62.7244 48.838 62.6805 48.8336 62.6541C48.8292 62.6233 48.8512 62.5925 48.8864 62.5881C48.9393 62.5793 48.9921 62.5793 49.0449 62.5793C49.9429 62.5793 50.8408 62.5793 51.7388 62.5793C51.7696 62.5793 51.8004 62.5793 51.8356 62.5793C51.9193 62.575 51.9633 62.6145 51.9985 62.698C52.179 63.1464 52.3639 63.5948 52.5443 64.0432C53.3323 65.9861 54.1202 67.9291 54.9081 69.8677C54.9477 69.96 54.9609 70.0699 55.0534 70.1402C55.1414 70.0567 55.1634 69.9512 55.203 69.8589C56.1802 67.5379 57.1574 65.2213 58.1302 62.9002C58.1478 62.8607 58.1698 62.8255 58.1786 62.7816C58.2139 62.6189 58.3107 62.575 58.4736 62.575C59.3275 62.5837 60.1859 62.5793 61.0398 62.5793C61.097 62.5793 61.1719 62.553 61.1939 62.6409C61.2115 62.7024 61.1587 62.7464 61.0442 62.7596C60.9078 62.7772 60.7713 62.786 60.6393 62.8299C60.1551 62.9882 59.8513 63.2959 59.7677 63.8102C59.7237 64.0827 59.7061 64.3553 59.7061 64.6278C59.7061 66.5268 59.7061 68.4258 59.7061 70.3204C59.7061 70.5622 59.7237 70.804 59.7589 71.0457C59.8645 71.7711 60.3751 72.0348 60.8681 72.1359C60.9518 72.1535 61.0354 72.1579 61.119 72.1711C61.1675 72.1799 61.1895 72.215 61.1939 72.259C61.1939 72.3074 61.1675 72.3337 61.1146 72.3337C61.053 72.3337 60.987 72.3337 60.9254 72.3337C59.5828 72.3337 58.2447 72.3337 56.9021 72.3337C56.8185 72.3337 56.7305 72.3513 56.6512 72.3117C56.638 72.303 56.6248 72.281 56.6248 72.2634C56.6248 72.2458 56.6292 72.2106 56.638 72.2062C56.6864 72.1843 56.7349 72.1667 56.7833 72.1579C56.9065 72.1359 57.0342 72.1315 57.1574 72.0964C57.6636 71.9469 57.963 71.6172 58.0598 71.1029C58.0994 70.8963 58.1258 70.6853 58.1258 70.4743C58.1258 70.3248 58.1302 70.1798 58.1302 70.0303C58.1302 68.0698 58.1302 66.1092 58.1302 64.1443C58.1302 64.0563 58.1258 63.964 58.1258 63.8761C58.117 63.8717 58.095 63.8717 58.073 63.8673Z" fill="#060606"/>
<path d="M12.4175 62.575C13.4475 65.1114 14.4687 67.6302 15.4943 70.1622C15.6044 70.0743 15.622 69.96 15.6616 69.8633C16.6388 67.5423 17.616 65.2256 18.5888 62.9046C18.6328 62.7991 18.6813 62.6936 18.7297 62.5837C18.8001 62.5793 18.8661 62.575 18.9278 62.575C19.7641 62.575 20.596 62.575 21.4324 62.575C21.494 62.575 21.56 62.5749 21.6217 62.5837C21.6525 62.5881 21.6833 62.6145 21.6745 62.6453C21.6701 62.6717 21.6525 62.7112 21.6305 62.72C21.5732 62.742 21.5072 62.7464 21.4456 62.7596C21.3311 62.7816 21.2167 62.7903 21.1066 62.8255C20.6092 62.9838 20.3099 63.3135 20.2351 63.841C20.1955 64.1355 20.1735 64.4256 20.1735 64.7245C20.1735 66.5576 20.1735 68.395 20.1735 70.2281C20.1735 70.4831 20.1823 70.7336 20.2219 70.9842C20.3275 71.6524 20.7017 72.0304 21.3796 72.1359C21.4632 72.1491 21.5468 72.1623 21.6261 72.1843C21.6481 72.1887 21.6657 72.2282 21.6701 72.259C21.6745 72.2898 21.6525 72.3161 21.6217 72.3249C21.5908 72.3293 21.56 72.3337 21.5292 72.3337C20.103 72.3337 18.6769 72.3337 17.2507 72.3337C17.211 72.3337 17.167 72.3249 17.1274 72.3117C17.1142 72.3074 17.101 72.281 17.101 72.2634C17.101 72.2458 17.1054 72.2194 17.1186 72.2062C17.1582 72.1623 17.2111 72.1579 17.2639 72.1535C17.4091 72.1403 17.5588 72.1271 17.6996 72.0788C18.131 71.9293 18.4127 71.6392 18.5184 71.1952C18.558 71.0326 18.5756 70.8611 18.5888 70.6941C18.602 70.4831 18.602 70.2721 18.6064 70.0611C18.6064 68.1005 18.6064 66.14 18.6064 64.175C18.6064 64.0739 18.5976 63.9772 18.5932 63.8366C18.4832 63.9508 18.4568 64.0651 18.4127 64.1662C17.2903 66.7906 16.1722 69.4149 15.0498 72.0392C15.0145 72.1183 14.9881 72.1975 14.9485 72.2722C14.9045 72.3557 14.7857 72.3513 14.746 72.2678C14.7108 72.2019 14.6888 72.1315 14.658 72.0656C13.5399 69.472 12.4219 66.8829 11.3038 64.2893C11.2598 64.1882 11.2334 64.0783 11.1454 63.986C11.0881 64.0695 11.1101 64.1399 11.1101 64.2102C11.1101 66.2147 11.1101 68.2192 11.1101 70.2237C11.1101 70.5095 11.1234 70.7908 11.163 71.0765C11.2334 71.5645 11.5943 72.0656 12.2898 72.1447C12.3735 72.1535 12.4571 72.1623 12.5407 72.1799C12.5804 72.1887 12.6068 72.2282 12.6024 72.2766C12.598 72.3161 12.5715 72.3293 12.5407 72.3337C12.4879 72.3425 12.4351 72.3381 12.3823 72.3381C11.4315 72.3381 10.4807 72.3381 9.5299 72.3381C9.47708 72.3381 9.42426 72.3381 9.37144 72.3337C9.34062 72.3293 9.31421 72.3161 9.30981 72.2766C9.30541 72.2282 9.33182 72.1887 9.37144 72.1799C9.45507 72.1623 9.53871 72.1535 9.62234 72.1447C10.2386 72.0656 10.6524 71.6656 10.7448 71.0765C10.78 70.8347 10.802 70.593 10.802 70.3512C10.802 69.4545 10.802 68.5577 10.8064 67.6609C10.8064 66.7026 10.8064 65.74 10.8064 64.7817C10.8064 64.474 10.7932 64.1706 10.7536 63.8673C10.6876 63.353 10.3706 62.9046 9.64875 62.7816C9.55631 62.764 9.45947 62.7596 9.36704 62.7376C9.33182 62.7288 9.30541 62.6848 9.31421 62.6365C9.32302 62.5969 9.35383 62.5881 9.38024 62.5837C9.43306 62.5793 9.48588 62.5793 9.53871 62.5793C10.4367 62.5793 11.3346 62.5793 12.2326 62.5793C12.2854 62.575 12.3383 62.575 12.4175 62.575Z" fill="#060606"/>
<path d="M37.4329 68.4301C37.1952 69.0543 36.9531 69.6829 36.7154 70.3159C36.6362 70.5225 36.5922 70.7379 36.5746 70.9621C36.5218 71.5292 36.8431 71.9951 37.4505 72.1358C37.5298 72.1534 37.6222 72.1402 37.6882 72.2018C37.7059 72.2193 37.7103 72.2589 37.7103 72.2853C37.7103 72.2985 37.6882 72.3204 37.675 72.3248C37.6222 72.3336 37.5694 72.338 37.5166 72.338C36.579 72.338 35.637 72.338 34.6994 72.338C34.6554 72.338 34.6158 72.338 34.5718 72.3336C34.541 72.3292 34.5145 72.3116 34.5145 72.2721C34.5145 72.2413 34.5145 72.2062 34.5498 72.193C34.5894 72.1798 34.629 72.1622 34.6686 72.1578C35.0736 72.1138 35.3729 71.8984 35.6282 71.5995C35.8483 71.3402 36.02 71.05 36.1652 70.7467C36.3941 70.2632 36.5922 69.7621 36.7859 69.2609C37.6134 67.1333 38.4409 65.0014 39.2685 62.8738C39.2773 62.8562 39.2861 62.8342 39.2949 62.8166C39.3961 62.5617 39.3653 62.5968 39.6338 62.5836C39.7879 62.5749 39.8319 62.6584 39.8759 62.7727C40.4086 64.065 40.9456 65.3618 41.4826 66.6542C42.0064 67.9202 42.5302 69.1818 43.0584 70.4478C43.1377 70.6412 43.2257 70.8346 43.3181 71.0237C43.3754 71.1467 43.4458 71.2654 43.5118 71.3841C43.7627 71.8281 44.1413 72.0831 44.6475 72.1402C44.7311 72.149 44.8148 72.1578 44.8984 72.171C44.9424 72.1798 44.9688 72.2149 44.9732 72.2589C44.9776 72.3073 44.9468 72.3336 44.8984 72.338C44.8368 72.3424 44.7707 72.3424 44.7091 72.3424C43.327 72.3424 41.9448 72.3424 40.5582 72.3424C40.4834 72.3424 40.4086 72.3424 40.3381 72.3336C40.3073 72.3292 40.2809 72.3073 40.2809 72.2721C40.2809 72.2413 40.2809 72.2062 40.3161 72.193C40.3645 72.1754 40.4174 72.1666 40.4658 72.1534C40.6022 72.127 40.7387 72.1138 40.8707 72.0787C41.4342 71.9292 41.6983 71.4852 41.5706 70.9226C41.5398 70.7907 41.5046 70.6544 41.4518 70.5313C41.1877 69.8764 40.9192 69.2258 40.6595 68.5708C40.6198 68.4741 40.5758 68.4125 40.457 68.4125C39.4842 68.4169 38.5158 68.4169 37.543 68.4169C37.5034 68.4081 37.4726 68.4213 37.4329 68.4301ZM38.9692 64.4651C38.9384 64.5266 38.9075 64.5706 38.8899 64.6189C38.4674 65.7179 38.0492 66.8168 37.6266 67.9158C37.6134 67.9554 37.6002 67.9949 37.5958 68.0389C37.5914 68.0697 37.6046 68.1048 37.6442 68.1092C37.697 68.118 37.7499 68.118 37.8027 68.118C38.6126 68.118 39.427 68.118 40.2369 68.118C40.2897 68.118 40.3425 68.1136 40.3954 68.1092C40.4306 68.1048 40.4438 68.0697 40.4394 68.0389C40.435 68.0081 40.4174 67.9817 40.4042 67.951C39.9552 66.8388 39.5062 65.7311 39.0528 64.6233C39.0308 64.5662 39.0044 64.5266 38.9692 64.4651Z" fill="#060606"/>
<path d="M27.5553 67.4543C27.5553 66.6103 27.5553 65.7663 27.5553 64.9267C27.5553 64.663 27.5465 64.3992 27.5333 64.1355C27.5289 64.0212 27.5113 63.9025 27.4893 63.7926C27.3704 63.208 26.9831 62.8563 26.3932 62.7728C26.3096 62.7596 26.226 62.7552 26.1423 62.7464C26.0895 62.742 26.0719 62.7024 26.0675 62.6585C26.0631 62.6145 26.0851 62.5793 26.1379 62.5793C26.1995 62.5793 26.2656 62.5793 26.3272 62.5793C27.6653 62.5793 29.0079 62.5793 30.346 62.5793C30.4209 62.5793 30.4957 62.5793 30.5661 62.5837C30.5969 62.5881 30.6234 62.6013 30.6278 62.6409C30.6322 62.6892 30.6102 62.72 30.5661 62.7376C30.5353 62.7464 30.5045 62.7508 30.4737 62.7552C30.4209 62.7596 30.3681 62.764 30.3152 62.7728C29.677 62.8563 29.2588 63.2695 29.1796 63.9025C29.1488 64.175 29.1267 64.4476 29.1267 64.7201C29.1223 66.5532 29.1267 68.3863 29.1223 70.2193C29.1223 70.4831 29.1444 70.7468 29.1796 71.0062C29.272 71.6656 29.655 72.0436 30.3108 72.1359C30.3857 72.1447 30.4561 72.1535 30.5309 72.1623C30.5881 72.1711 30.6278 72.1975 30.6234 72.2634C30.619 72.3205 30.5749 72.3249 30.5353 72.3249C30.4913 72.3293 30.4517 72.3293 30.4077 72.3293C29.0255 72.3293 27.6433 72.3293 26.2612 72.3293C26.2171 72.3293 26.1775 72.3293 26.1335 72.3293C26.0807 72.3293 26.0587 72.2986 26.0587 72.2502C26.0631 72.2062 26.0851 72.1711 26.1335 72.1623C26.2172 72.1535 26.3008 72.1447 26.3844 72.1315C27.0095 72.0524 27.4188 71.604 27.4849 71.1117C27.5025 70.9886 27.5289 70.8611 27.5289 70.738C27.5421 70.2633 27.5465 69.7885 27.5509 69.3138C27.5553 68.6984 27.5553 68.0742 27.5553 67.4543Z" fill="#060606"/>
<path d="M67.0835 67.4192C67.0835 66.5136 67.0879 65.6081 67.0835 64.6981C67.0835 64.4036 67.0835 64.1091 67.0263 63.8146C66.9074 63.2167 66.5245 62.8475 65.9214 62.7684C65.829 62.7552 65.7321 62.7464 65.6441 62.7244C65.6221 62.72 65.6045 62.6761 65.6001 62.6497C65.5957 62.6189 65.6133 62.5837 65.6485 62.5793C65.6881 62.5706 65.7321 62.5706 65.7761 62.5706C67.1671 62.5706 68.5625 62.5706 69.9535 62.5706C70.0063 62.5706 70.0591 62.5706 70.1119 62.5793C70.1427 62.5837 70.1691 62.6013 70.1691 62.6409C70.1691 62.6717 70.1691 62.7068 70.1295 62.72C70.0899 62.7332 70.0503 62.7464 70.0107 62.7508C69.9359 62.7596 69.8654 62.764 69.7906 62.7772C69.214 62.8695 68.8222 63.2651 68.7298 63.8366C68.6857 64.0959 68.6681 64.3597 68.6681 64.6234C68.6681 66.5092 68.6681 68.3951 68.6681 70.2809C68.6681 70.5358 68.6901 70.7864 68.7298 71.037C68.8266 71.6612 69.2008 72.0348 69.8258 72.1271C69.9094 72.1403 69.9931 72.1447 70.0767 72.1579C70.1339 72.1667 70.1735 72.1975 70.1691 72.2634C70.1647 72.3205 70.1207 72.3205 70.0767 72.3249C70.0239 72.3293 69.9711 72.3293 69.9182 72.3293C68.5581 72.3293 67.1935 72.3293 65.8334 72.3293C65.7805 72.3293 65.7277 72.3293 65.6749 72.3249C65.6265 72.3249 65.5957 72.2942 65.6001 72.2458C65.6045 72.2019 65.6309 72.1667 65.6793 72.1579C65.7629 72.1447 65.8466 72.1403 65.9302 72.1271C66.5421 72.0524 66.9646 71.5996 67.0351 71.0765C67.0615 70.8787 67.0835 70.6809 67.0835 70.4787C67.0835 69.4545 67.0835 68.4346 67.0835 67.4104C67.0791 67.4192 67.0835 67.4192 67.0835 67.4192Z" fill="#060606"/>
<path d="M48.0897 75.4941C49.2166 75.4941 50.339 75.4941 51.4835 75.4941C51.5407 75.8282 51.5363 76.1623 51.5539 76.492C51.4791 76.5184 51.4747 76.4744 51.4659 76.4349C51.3426 75.8854 50.9597 75.5996 50.361 75.5953C50.0881 75.5909 49.8108 75.5909 49.5379 75.5909C49.4631 75.5909 49.419 75.626 49.419 75.7051C49.419 75.8019 49.419 75.8942 49.419 75.9909C49.419 76.4656 49.419 76.9404 49.419 77.4151C49.419 77.4371 49.4279 77.4547 49.4323 77.4855C49.5907 77.5382 49.7624 77.5162 49.9253 77.5031C50.2114 77.4767 50.383 77.314 50.4579 77.0371C50.4799 76.958 50.4579 76.8657 50.5195 76.7953C50.5239 76.7909 50.5371 76.7865 50.5459 76.7865C50.5547 76.7865 50.5723 76.7909 50.5767 76.7953C50.5811 76.8129 50.5855 76.8349 50.5855 76.8569C50.5811 77.3536 50.5767 77.8459 50.5723 78.3427C50.5723 78.3866 50.5679 78.4262 50.5151 78.4438C50.4491 78.3558 50.4623 78.2459 50.4315 78.1448C50.317 77.8064 50.1453 77.6613 49.7932 77.6305C49.7404 77.6261 49.6876 77.6217 49.6347 77.6217C49.4102 77.613 49.4191 77.6481 49.4235 77.8327C49.4235 78.2108 49.4147 78.5932 49.4499 78.9713C49.4587 79.0768 49.4763 79.1779 49.5115 79.279C49.6039 79.512 49.7712 79.6614 50.0089 79.7274C50.3522 79.8197 50.7 79.8021 51.0389 79.7054C51.3382 79.6175 51.5495 79.4152 51.6816 79.1383C51.7388 79.0152 51.7828 78.8833 51.8136 78.7515C51.8224 78.7075 51.8268 78.646 51.8929 78.6372C51.9413 78.668 51.9237 78.7119 51.9237 78.7471C51.9149 79.0724 51.9017 79.4021 51.8841 79.7274C51.8753 79.8768 51.8753 79.8768 51.7124 79.8812C51.6596 79.8812 51.6067 79.8812 51.5539 79.8812C49.7932 79.8812 48.0281 79.8812 46.2674 79.8812C46.1529 79.8812 46.0385 79.8988 45.88 79.8416C46.0121 79.8021 46.1001 79.7845 46.1793 79.7537C46.3378 79.6922 46.3862 79.5867 46.329 79.4284C46.3026 79.3581 46.2674 79.2922 46.2277 79.235C45.8624 78.6943 45.431 78.1976 45.0216 77.6877C44.9864 77.6437 44.938 77.6305 44.8896 77.6745C44.806 77.7448 44.7487 77.8196 44.7531 77.9426C44.7619 78.3339 44.7575 78.7207 44.7619 79.1119C44.7619 79.1867 44.7663 79.2614 44.7795 79.3317C44.8236 79.5427 44.9468 79.6922 45.1537 79.7625C45.2329 79.7889 45.3166 79.8021 45.4442 79.8329C45.1845 79.912 44.9644 79.8724 44.7531 79.8768C44.5198 79.8856 44.2865 79.8812 44.0577 79.8768C43.8376 79.8768 43.6219 79.8856 43.3886 79.8636C43.4326 79.7669 43.503 79.7977 43.5558 79.7845C43.8464 79.7054 43.9872 79.5515 44.0224 79.257C44.04 79.0987 44.0444 78.9405 44.0444 78.7822C44.0488 78.0437 44.0444 77.3052 44.0444 76.5667C44.0444 76.4173 44.0356 76.2722 44.0224 76.1228C44.0048 75.837 43.8596 75.6524 43.5779 75.5821C43.5206 75.5689 43.4634 75.5513 43.4062 75.5337C43.4018 75.4985 43.4106 75.4854 43.4326 75.481C44.0797 75.4722 44.7267 75.4722 45.3782 75.481C45.3738 75.5689 45.3166 75.5425 45.2858 75.5557C45.2461 75.5733 45.2065 75.5821 45.1625 75.5909C44.9336 75.6568 44.8192 75.8194 44.7751 76.0436C44.7663 76.0964 44.7619 76.1491 44.7619 76.2019C44.7619 76.6327 44.7575 77.0679 44.7575 77.4987C44.7575 77.525 44.7663 77.5382 44.806 77.547C44.85 77.547 44.8764 77.4987 44.9072 77.4635C45.3254 77.0503 45.7479 76.6327 46.1661 76.2151C46.241 76.1403 46.3158 76.0612 46.3686 75.9733C46.4522 75.8458 46.4082 75.692 46.2718 75.6216C46.1925 75.5821 46.1045 75.5557 46.0253 75.5293C46.0209 75.4854 46.0297 75.4766 46.0605 75.4766C46.4698 75.4766 46.8836 75.4766 47.293 75.4766C47.3238 75.4766 47.337 75.481 47.3326 75.5205C47.3106 75.5689 47.2534 75.5645 47.2093 75.5777C47.0641 75.6172 46.9364 75.692 46.8264 75.7931C46.373 76.2195 45.9196 76.6459 45.475 77.0635C45.4838 77.1646 45.5411 77.2129 45.5851 77.2701C46.0869 77.9075 46.5887 78.5449 47.0905 79.1867C47.249 79.3889 47.4294 79.5603 47.6539 79.6834C47.8168 79.7713 47.9885 79.8109 48.1733 79.7801C48.4507 79.7405 48.6311 79.5691 48.6795 79.2922C48.6972 79.1999 48.6972 79.1031 48.6972 79.0064C48.6972 78.1229 48.6972 77.2349 48.6972 76.3513C48.6972 76.2766 48.6928 76.2019 48.6839 76.1315C48.6575 75.8106 48.4771 75.6216 48.213 75.5733C48.1645 75.5645 48.1161 75.5469 48.0677 75.5337C48.0853 75.5249 48.0853 75.5117 48.0897 75.4941Z" fill="#060606"/>
<path d="M31.7194 58.8647C31.7194 58.9394 31.7194 59.0097 31.7194 59.0845C31.6974 59.1108 31.6754 59.1328 31.6534 59.1592L31.649 59.1548C31.6446 59.1372 31.6358 59.1196 31.6226 59.1064C31.5477 59.0009 31.5697 58.891 31.5961 58.7767C31.6358 58.746 31.6446 58.7064 31.6446 58.6581C31.7282 58.4295 31.9043 58.3416 32.1332 58.3416C32.186 58.3416 32.2388 58.346 32.2916 58.3503C32.5073 58.3591 32.635 58.469 32.723 58.6668C32.8463 58.9482 32.8859 59.2295 32.7846 59.5284C32.723 59.7131 32.6042 59.8581 32.4413 59.968C32.1904 60.1438 31.9043 60.2054 31.6094 60.2406C31.2836 60.2801 30.9579 60.2933 30.6278 60.2933C28.7702 60.2889 26.9126 60.2889 25.0551 60.2801C23.937 60.2757 22.819 60.2713 21.6965 60.2669C19.9006 60.2581 18.109 60.2494 16.3131 60.2406C15.4679 60.2362 14.6228 60.2318 13.7776 60.223C11.4139 60.201 9.05011 60.1834 6.68634 60.157C5.91603 60.1482 5.14571 60.1219 4.3754 60.1043C4.3754 60.0823 4.3798 60.0647 4.3842 60.0471H4.3886C4.46343 60.0515 4.53386 60.0647 4.60869 60.0647C4.95643 60.0647 5.30418 60.0603 5.65192 60.0559C7.21016 60.034 8.7684 60.0032 10.331 59.9856C12.1226 59.968 13.9141 59.9636 15.7056 59.9504C15.7981 59.9504 15.8949 59.968 15.983 59.9197C16.8501 59.9153 17.7129 59.9109 18.58 59.9065C18.6857 59.9109 18.7913 59.9241 18.8925 59.9241C19.588 59.9241 20.2879 59.9197 20.9834 59.9197C23.2195 59.9153 25.46 59.9153 27.6961 59.9109C28.8274 59.9109 29.9543 59.9065 31.0855 59.8977C31.2836 59.8977 31.4861 59.8713 31.6842 59.8537C31.7326 59.8493 31.781 59.8186 31.8294 59.801C32.0011 59.7834 32.1552 59.7262 32.2916 59.6251C32.5866 59.401 32.6174 58.9746 32.3621 58.7196C32.186 58.5438 32.0055 58.5438 31.8162 58.7196C31.7942 58.7416 31.7722 58.7636 31.7502 58.7855C31.7458 58.8119 31.7326 58.8383 31.7194 58.8647Z" fill="#231E1E"/>
<path d="M48.6928 59.2208C48.7412 59.0933 48.7852 58.9702 48.728 58.8296C48.6135 58.5614 48.3274 58.4999 48.1205 58.7021C47.8608 58.957 47.8872 59.3834 48.1778 59.612C48.3142 59.7175 48.4683 59.7747 48.6399 59.7922C48.8776 59.8977 49.1329 59.8933 49.3838 59.8933C50.229 59.9021 51.0741 59.9021 51.9149 59.9065C53.3939 59.9109 54.8685 59.9153 56.3475 59.9153C58.0554 59.9197 59.7677 59.9197 61.4756 59.9241C61.568 59.9241 61.6649 59.9153 61.7573 59.9109C62.1799 59.9109 62.5981 59.9153 63.0206 59.9153C63.0867 59.9549 63.1659 59.9417 63.2363 59.9417C65.3272 59.9593 67.418 59.9681 69.5089 59.9901C70.8823 60.0032 72.2512 60.0296 73.6246 60.0516C73.8139 60.056 74.0031 60.0604 74.21 60.0648C74.1484 60.1131 74.0956 60.1043 74.0472 60.1043C73.4969 60.1175 72.9511 60.1219 72.4009 60.1395C72.1192 60.1483 71.833 60.1219 71.5513 60.1703C70.9307 60.1747 70.3056 60.1835 69.685 60.1879C67.44 60.2054 65.1907 60.223 62.9458 60.2406C62.1667 60.245 61.3832 60.2538 60.604 60.2538C59.0018 60.2582 57.3951 60.2626 55.7929 60.267C54.2126 60.2714 52.628 60.2758 51.0477 60.2802C50.4887 60.2802 49.9297 60.2846 49.3706 60.2802C49.0757 60.2758 48.7808 60.2406 48.4947 60.1747C48.2834 60.1263 48.0985 60.0252 47.9357 59.889C47.698 59.6911 47.6451 59.4098 47.6583 59.1153C47.6627 59.0098 47.6848 58.9043 47.7156 58.8076C47.8036 58.5131 48.0853 58.3284 48.389 58.3372C48.6091 58.346 48.9041 58.5614 48.8997 58.8471C48.8952 59.0274 48.9041 59.212 48.7104 59.3131C48.7016 59.2823 48.6972 59.2515 48.6928 59.2208Z" fill="#231E1E"/>
<path d="M28.5941 79.8373C28.3652 79.8857 27.5465 79.9033 26.741 79.8769C26.6881 79.8769 26.6353 79.8857 26.6001 79.8329C26.6573 79.7758 26.741 79.8022 26.807 79.7802C27.0491 79.6967 27.2031 79.5428 27.2252 79.2791C27.2384 79.1428 27.2516 79.0065 27.2516 78.8702C27.256 78.079 27.256 77.2877 27.2516 76.4965C27.2516 76.369 27.2384 76.2459 27.2296 76.1184C27.2075 75.8459 27.0755 75.6657 26.8026 75.5953C26.7366 75.5778 26.6749 75.5558 26.6045 75.5338C26.6573 75.4679 26.7101 75.4898 26.7586 75.4898C27.4144 75.4898 28.0659 75.4898 28.7218 75.4898C28.911 75.4898 29.1003 75.503 29.2896 75.5426C29.8706 75.6745 30.368 76.2899 30.1083 77.0723C30.0291 77.3141 29.8486 77.4768 29.6197 77.5823C29.4261 77.6702 29.2192 77.7097 29.0035 77.7097C28.6954 77.7097 28.3916 77.7141 28.0835 77.7141C28.0043 77.7141 27.9691 77.7537 27.9691 77.8284C27.9735 78.2812 27.9647 78.734 27.9823 79.1867C27.9955 79.5516 28.1495 79.7142 28.5061 79.7934C28.5325 79.7978 28.5765 79.7846 28.5941 79.8373ZM27.9603 76.5888C27.9603 76.7778 27.9559 76.9668 27.9603 77.1559C27.9735 77.6878 27.8634 77.6042 28.4357 77.5998C28.4885 77.5998 28.5413 77.5911 28.5941 77.5867C28.9507 77.5603 29.1752 77.3581 29.3072 77.046C29.4173 76.7822 29.4084 76.5097 29.3248 76.2415C29.1928 75.8283 28.9198 75.6173 28.4885 75.5953C28.352 75.5865 28.2156 75.5909 28.0791 75.5909C27.9999 75.5909 27.9647 75.6261 27.9647 75.7052C27.9603 75.9954 27.9603 76.2943 27.9603 76.5888Z" fill="#060606"/>
<path d="M35.122 79.8331C35.0868 79.8858 35.034 79.8726 34.9811 79.877C34.1404 79.9078 33.3613 79.8902 33.1236 79.8375C33.1764 79.7671 33.2556 79.7979 33.3172 79.7803C33.5637 79.7056 33.7178 79.5517 33.7442 79.288C33.7574 79.1517 33.775 79.0154 33.775 78.8792C33.7794 77.8681 33.775 76.8571 33.775 75.8416C33.775 75.7977 33.775 75.7581 33.775 75.7142C33.7706 75.6174 33.7398 75.5911 33.6342 75.5911C33.6254 75.5911 33.6122 75.5911 33.6034 75.5911C33.3393 75.6131 33.0795 75.6087 32.8154 75.6614C32.4589 75.7317 32.2388 75.9427 32.0979 76.2636C32.0407 76.3867 32.0407 76.5318 31.9571 76.6505C31.8911 76.4834 31.8999 76.0614 31.9791 75.512C32.0495 75.4768 32.1244 75.49 32.1948 75.49C33.4845 75.49 34.7698 75.49 36.0596 75.49C36.1124 75.49 36.1652 75.49 36.218 75.49C36.2973 75.49 36.3281 75.5339 36.3281 75.6087C36.3413 75.9339 36.3589 76.2592 36.3765 76.5889C36.3765 76.6065 36.3633 76.6285 36.3501 76.6373C36.3149 76.6549 36.2929 76.6285 36.2841 76.5933C36.2532 76.4922 36.2312 76.3911 36.1916 76.29C36.0728 75.9867 35.8527 75.7845 35.5446 75.6922C35.2276 75.5955 34.8975 75.5999 34.5718 75.5955C34.5233 75.5955 34.4925 75.6262 34.4881 75.6702C34.4837 75.7449 34.4837 75.8197 34.4837 75.89C34.4837 76.8703 34.4837 77.8505 34.4837 78.8308C34.4837 78.9583 34.4837 79.0858 34.4969 79.2089C34.5233 79.5517 34.6686 79.71 35.0119 79.7891C35.0516 79.7979 35.1 79.7891 35.122 79.8331Z" fill="#060606"/>
<path d="M55.2426 79.8065C55.0446 79.8724 53.5964 79.8944 53.3102 79.868C53.2838 79.8636 53.2574 79.8416 53.2134 79.8197C53.3146 79.7977 53.3983 79.7845 53.4731 79.7625C53.6668 79.701 53.7944 79.5735 53.8473 79.3669C53.8781 79.2526 53.8913 79.1383 53.8913 79.024C53.8913 77.9382 53.8913 76.8525 53.8913 75.7667C53.8913 75.7359 53.8913 75.7051 53.8869 75.67C53.8781 75.626 53.8517 75.5909 53.8032 75.5952C53.4555 75.5996 53.1034 75.5952 52.7688 75.7051C52.5135 75.7887 52.3418 75.9733 52.2406 76.2151C52.1834 76.3557 52.135 76.5008 52.0821 76.6459C52.0337 76.6327 52.0249 76.6019 52.0249 76.5711C52.0381 76.2546 52.0513 75.9381 52.0689 75.6216C52.0733 75.5117 52.0953 75.4941 52.201 75.4854C52.2538 75.481 52.3066 75.4854 52.3595 75.4854C53.636 75.4854 54.9125 75.4854 56.1934 75.4854C56.2683 75.4854 56.3387 75.4854 56.4267 75.4854C56.4707 75.8766 56.4927 76.2502 56.4971 76.6283C56.4311 76.6459 56.4179 76.6019 56.4047 76.5667C56.3739 76.4788 56.3475 76.3865 56.3167 76.2986C56.1978 75.9777 55.9689 75.7799 55.6432 75.6876C55.5111 75.648 55.3791 75.6172 55.2382 75.6172C55.0402 75.6172 54.8377 75.5689 54.6396 75.6128C54.5604 75.8063 54.6088 76.0085 54.6044 76.2019C54.6 77.0986 54.6 77.9954 54.6044 78.8921C54.6044 79.0284 54.6088 79.1647 54.6308 79.301C54.6704 79.5691 54.8333 79.7317 55.1018 79.7889C55.1414 79.7933 55.1942 79.8021 55.2426 79.8065Z" fill="#060606"/>
<path d="M42.7327 79.3802C42.5654 79.6571 42.2969 79.811 42.002 79.8945C41.3549 80.0747 40.7211 80.022 40.1268 79.7055C39.5678 79.4109 39.2641 78.9098 39.1452 78.3032C39.0572 77.8416 39.0748 77.3801 39.2157 76.9273C39.471 76.0921 40.052 75.6173 40.8928 75.4283C41.3373 75.3272 41.7731 75.3668 42.2045 75.503C42.3233 75.5426 42.4422 75.5866 42.5654 75.6173C42.6491 75.6393 42.7327 75.6261 42.7899 75.547C42.8163 75.5118 42.8428 75.4723 42.8868 75.503C42.9044 75.5162 42.9176 75.5558 42.9176 75.5822C42.9264 76.013 42.944 76.4394 42.9352 76.8746C42.8428 76.8877 42.8428 76.8174 42.8252 76.7822C42.7723 76.6592 42.7239 76.5273 42.6755 76.3998C42.6051 76.224 42.4994 76.0657 42.3762 75.9163C41.8656 75.3008 40.9808 75.3844 40.5318 75.8723C40.2985 76.1273 40.1224 76.4086 40.0212 76.7339C39.8231 77.3625 39.8275 77.9999 40.0124 78.6329C40.0256 78.6812 40.0476 78.734 40.0696 78.7823C40.4482 79.7187 41.3461 79.9341 42.0989 79.7011C42.3366 79.6263 42.5258 79.4813 42.6843 79.2879C42.7239 79.3054 42.7239 79.345 42.7327 79.3802Z" fill="#060606"/>
<path d="M23.0919 76.558C23.1183 76.4349 23.1491 76.3118 23.1755 76.1888C23.1975 76.0964 23.1931 76.0041 23.1755 75.9074C23.1403 75.736 23.0478 75.6261 22.8806 75.5689C22.8366 75.5558 22.7749 75.5821 22.7441 75.4898C22.8938 75.4854 23.039 75.4854 23.1799 75.481C23.3296 75.481 23.4748 75.481 23.6245 75.481C23.7609 75.481 23.9018 75.4634 24.0339 75.4854C24.1835 75.5118 24.3244 75.4678 24.474 75.4766C24.6193 75.4854 24.769 75.4766 24.9186 75.4766C25.0683 75.4766 25.2135 75.4766 25.3632 75.4766C25.4997 75.4766 25.6361 75.4766 25.777 75.4766C25.9222 75.4766 26.0719 75.4766 26.2171 75.4766C26.2304 75.5514 26.1819 75.547 26.1423 75.5558C26.0807 75.5733 26.0191 75.5865 25.9574 75.6085C25.7902 75.6744 25.6801 75.7931 25.6317 75.969C25.5965 76.1008 25.5789 76.2371 25.5789 76.3778C25.5789 77.2438 25.5789 78.1053 25.5789 78.9713C25.5789 79.0768 25.5965 79.1823 25.6097 79.2834C25.6449 79.5604 25.8078 79.7186 26.0719 79.7758C26.1203 79.789 26.1731 79.7934 26.226 79.7978C26.2171 79.8681 26.1687 79.8637 26.1335 79.8637C25.5305 79.8637 24.9274 79.8637 24.3288 79.8637C24.2848 79.8637 24.2451 79.8549 24.2187 79.8153C24.2892 79.7582 24.3816 79.7846 24.4564 79.7538C24.6457 79.6791 24.7822 79.5604 24.8262 79.3582C24.8482 79.2571 24.8658 79.1516 24.8658 79.0461C24.8702 78.1273 24.8702 77.213 24.8658 76.2943C24.8658 76.18 24.857 76.0657 24.8174 75.9514C24.7601 75.7799 24.6501 75.6657 24.4784 75.6041C24.1483 75.4854 23.8226 75.5645 23.6025 75.8415C23.5232 75.9382 23.4616 76.0525 23.4044 76.1668C23.3296 76.3162 23.2635 76.4701 23.1887 76.6239C23.1579 76.6371 23.1447 76.6591 23.1535 76.6899C23.1007 76.6679 23.1051 76.6108 23.0919 76.558Z" fill="#060606"/>
<path d="M58.6452 79.732C59.0062 79.4067 59.0546 79.0154 58.8961 78.5803C58.8301 78.3956 58.7024 78.255 58.5396 78.1495C58.3635 78.0352 58.1742 77.9385 57.9938 77.833C57.8397 77.745 57.6768 77.6659 57.5272 77.5692C57.109 77.3055 56.9373 76.9142 57.0166 76.4351C57.1002 75.9296 57.3907 75.5779 57.8925 75.4152C58.1566 75.3317 58.4119 75.3625 58.6672 75.4504C58.7861 75.4944 58.9005 75.5427 59.0194 75.5867C59.1382 75.6306 59.2439 75.6262 59.3187 75.4988C59.3231 75.49 59.3583 75.4944 59.3759 75.49C59.4199 75.8241 59.4199 76.4702 59.3759 76.69C59.3055 76.6637 59.3055 76.5977 59.2835 76.545C59.2307 76.3955 59.1778 76.2461 59.1162 76.1054C59.0502 75.9515 58.9489 75.8109 58.8257 75.6966C58.588 75.4768 58.3063 75.4196 58.0026 75.512C57.5228 75.657 57.3467 76.2636 57.6504 76.6769C57.7737 76.8395 57.9365 76.9582 58.117 77.0461C58.3063 77.1428 58.5 77.2219 58.6848 77.323C58.8433 77.4066 59.0018 77.4945 59.1426 77.6C59.5608 77.9121 59.7325 78.3385 59.6488 78.8484C59.5652 79.3627 59.2747 79.732 58.7685 79.9078C58.7509 79.9122 58.7289 79.9122 58.7068 79.9122C58.632 79.899 58.5792 79.8595 58.5792 79.7759H58.5836C58.61 79.7847 58.632 79.7671 58.6452 79.732Z" fill="#060606"/>
<path d="M74.3553 77.9515C74.0427 77.9998 73.7258 77.9779 73.4089 77.9823C71.6482 78.0042 69.8874 78.0218 68.1223 78.0394C66.9734 78.0526 65.8246 78.0658 64.6713 78.0746C63.364 78.0834 62.0566 78.0921 60.7449 78.1009C60.6701 78.1009 60.5952 78.1009 60.5248 78.1009C60.3179 78.0965 60.3047 78.0834 60.3135 77.8899C60.3179 77.7669 60.3355 77.7449 60.4676 77.7449C61.2071 77.7449 61.9466 77.7493 62.6817 77.7493C63.7073 77.7537 64.7285 77.7581 65.7541 77.7669C66.7754 77.7712 67.801 77.78 68.8222 77.7888C69.6541 77.7976 70.4905 77.8108 71.3224 77.824C71.3841 77.824 71.4457 77.8372 71.5117 77.8416C71.5513 77.8811 71.6041 77.8899 71.657 77.8899C71.8066 77.8899 71.9519 77.8899 72.1015 77.8899C72.775 77.8899 73.4485 77.8899 74.1264 77.8899C74.2056 77.8943 74.298 77.868 74.3553 77.9515Z" fill="#231E1E"/>
<path d="M38.5994 79.811C38.3177 79.8857 36.9135 79.8857 36.6098 79.8461C36.6318 79.7626 36.7022 79.7978 36.7507 79.7846C37.05 79.7055 37.1952 79.5384 37.2261 79.2307C37.2393 79.1032 37.2393 78.9802 37.2393 78.8527C37.2393 78.0746 37.2393 77.2922 37.2393 76.5141C37.2393 76.3866 37.2393 76.2591 37.2261 76.136C37.1996 75.8327 37.072 75.6789 36.7859 75.591C36.7551 75.5822 36.7242 75.5734 36.6934 75.5646C36.667 75.5558 36.6406 75.547 36.6098 75.5382C36.623 75.5162 36.6318 75.4899 36.6406 75.4899C37.1072 75.4679 38.3485 75.4811 38.5862 75.5074C38.5862 75.5778 38.529 75.547 38.4982 75.5602C38.4586 75.5778 38.4189 75.5822 38.3749 75.5954C38.1372 75.6657 38.0052 75.8283 37.9788 76.0701C37.9612 76.2284 37.9479 76.3866 37.9479 76.5405C37.9435 77.2965 37.9435 78.057 37.9479 78.8131C37.9479 78.9494 37.9568 79.0857 37.9744 79.2219C38.014 79.5604 38.1416 79.6967 38.4762 79.7758C38.5202 79.7978 38.5598 79.8022 38.5994 79.811Z" fill="#060606"/>
<path d="M8.58352 77.8284C9.2702 77.8196 9.95688 77.8108 10.6392 77.8064C12.9281 77.7888 15.217 77.7713 17.5104 77.7537C18.0474 77.7493 18.5888 77.7493 19.1258 77.7449C19.1787 77.7449 19.2315 77.7449 19.2843 77.7449C19.3459 77.7449 19.3855 77.7756 19.3855 77.8372C19.3899 77.8899 19.3855 77.9427 19.3855 77.9954C19.3811 78.057 19.3503 78.0965 19.2887 78.0965C19.1082 78.0965 18.9278 78.1009 18.7517 78.1009C18.1618 78.0965 17.572 78.0878 16.9778 78.0834C15.8377 78.0746 14.6976 78.0746 13.5576 78.0614C11.6912 78.0438 9.82042 78.0218 7.95406 77.9998C7.20575 77.991 6.45745 77.9735 5.70914 77.9603C5.6211 77.9031 5.50666 77.9691 5.3614 77.8811C5.63871 77.8811 5.8544 77.8855 6.07009 77.8811C6.85801 77.8724 7.64593 77.8592 8.43386 77.8504C8.48228 77.8592 8.5307 77.8416 8.58352 77.8284Z" fill="#231E1E"/>
<path d="M22.1411 79.156C22.0618 79.3626 21.9782 79.5648 21.899 79.7714C21.877 79.8242 21.855 79.8682 21.7933 79.8726C21.7317 79.8769 21.7009 79.8374 21.6789 79.7846C21.6437 79.6967 21.6085 79.6088 21.5732 79.5209C21.1947 78.5494 20.8161 77.5779 20.4376 76.6064C20.3715 76.4394 20.3099 76.2724 20.2307 76.1097C20.0238 75.6877 19.9578 75.635 19.5088 75.5426C19.5 75.4767 19.5484 75.4855 19.5836 75.4855C20.2087 75.4855 20.8293 75.4855 21.4544 75.4855C21.4808 75.4855 21.5116 75.4943 21.538 75.4987C21.5512 75.569 21.494 75.5558 21.4588 75.569C21.4192 75.5822 21.3752 75.591 21.3355 75.6042C21.0802 75.6833 20.9614 75.8811 21.0186 76.1361C21.0406 76.2284 21.0802 76.3163 21.111 76.4042C21.3796 77.1339 21.6481 77.868 21.9166 78.5978C21.9298 78.6373 21.9386 78.6769 21.9474 78.7208C21.9386 78.7736 21.9474 78.8175 22.0002 78.8483L22.0046 78.8659C22.0002 78.9318 22.009 78.989 22.0662 79.0286C22.1191 79.0549 22.1279 79.1033 22.1411 79.156Z" fill="#060606"/>
<path d="M1.84436 78.6638C1.28533 78.3033 0.691085 78.1143 0.026413 77.9253C0.686684 77.7275 1.29413 77.556 1.82235 77.1956C2.00722 77.6264 2.00722 77.6264 2.46061 77.9341C2.14368 78.0747 1.91039 78.2901 1.84436 78.6638Z" fill="#231E1E"/>
<path d="M2.49142 60.0825C2.13928 60.2144 1.90598 60.4254 1.84876 60.8078C1.27652 60.4474 0.686681 60.2407 0 60.0781C0.677878 59.8979 1.27652 59.7132 1.81354 59.3528C1.91478 59.5066 1.93239 59.6781 2.05564 59.8012C2.17009 59.9242 2.31975 59.977 2.49142 60.0825Z" fill="#060606"/>
<path d="M79.6858 60.0648C79.6418 60.1352 79.5714 60.1395 79.5186 60.1527C78.9816 60.2758 78.4753 60.478 78 60.7638C77.9251 60.8077 77.8767 60.7945 77.8635 60.711C77.8195 60.4341 77.6434 60.267 77.3969 60.1615C77.3573 60.1439 77.3221 60.122 77.2869 60.1C77.3001 60.034 77.3573 60.0253 77.4013 60.0033C77.6302 59.8978 77.8063 59.7439 77.8679 59.4846C77.8899 59.401 77.9383 59.3835 78.0088 59.423C78.4886 59.6956 78.9948 59.8978 79.5362 60.0165C79.5846 60.0209 79.633 60.0428 79.6858 60.0648Z" fill="#231E1E"/>
<path d="M77.9295 77.1997C78.4534 77.569 79.052 77.7272 79.6947 77.925C79.0432 78.114 78.4534 78.2943 77.9163 78.6503C77.8283 78.4965 77.8239 78.3163 77.6962 78.1932C77.5774 78.0833 77.4365 78.0129 77.2957 77.925C77.4277 77.8151 77.5862 77.7536 77.7095 77.6349C77.8415 77.5162 77.8107 77.3228 77.9295 77.1997Z" fill="#060606"/>
<path d="M71.5469 60.1704C71.8286 60.1264 72.1147 60.1528 72.3965 60.1396C72.9467 60.1176 73.4925 60.1133 74.0427 60.1045C74.0912 60.1045 74.144 60.1132 74.2056 60.0649C73.9987 60.0605 73.8094 60.0517 73.6202 60.0517C72.2468 60.0297 70.8778 60.0034 69.5045 59.9902C67.4136 59.9682 65.3228 59.9594 63.2319 59.9418C63.1571 59.9418 63.0822 59.955 63.0162 59.9154C63.0955 59.8715 63.1791 59.8847 63.2627 59.8847C64.4556 59.8935 65.6485 59.9023 66.8414 59.9066C67.6953 59.911 68.5493 59.9154 69.4076 59.9242C70.3056 59.933 71.2036 59.9374 72.0971 59.9506C73.224 59.9682 74.3553 59.9858 75.4821 60.0077C75.9399 60.0165 76.3977 60.0473 76.8907 60.0649C76.6398 60.1176 76.4153 60.1089 76.1952 60.1089C75.0992 60.1308 74.0031 60.1528 72.9027 60.1748C72.5241 60.1836 72.1412 60.1836 71.7626 60.1836C71.6922 60.188 71.6217 60.1792 71.5469 60.1704Z" fill="#C3996A"/>
<path d="M77.4585 3.74517C77.551 3.7144 77.6346 3.73198 77.7139 3.73638C77.7931 3.99134 78.1144 4.61995 78.2685 4.81336C78.4446 4.46169 78.6338 4.12321 78.7923 3.73638C78.8407 3.7188 78.9332 3.72319 79.03 3.74957C79.03 4.09684 79.03 4.44411 79.03 4.78699C79.03 4.89249 79.03 4.99799 79.0432 5.10349C79.0564 5.18261 79.0168 5.19141 78.9596 5.19141C78.9199 5.19141 78.8803 5.18261 78.8451 5.17822C78.8451 4.82215 78.8451 4.47488 78.8451 4.13201C78.7791 4.10563 78.7571 4.16278 78.7351 4.20674C78.5766 4.51444 78.4225 4.82655 78.2641 5.12986C78.1892 5.12547 78.1716 5.07272 78.1496 5.02876C78.0264 4.78259 77.9031 4.54082 77.7799 4.29465C77.7667 4.26828 77.7535 4.23751 77.7359 4.21113C77.7183 4.18915 77.7095 4.15399 77.6654 4.16278C77.6258 4.17157 77.6214 4.20674 77.6214 4.23311C77.6258 4.52763 77.5906 4.82215 77.639 5.11228C77.6478 5.15184 77.639 5.17382 77.6082 5.18261C77.5686 5.19141 77.5246 5.19141 77.485 5.18261C77.4541 5.17822 77.4409 5.16063 77.4453 5.11668C77.485 4.6683 77.4629 4.21992 77.4585 3.74517Z" fill="#231F1F"/>
<path d="M31.8382 59.7966C31.7898 59.8142 31.7414 59.845 31.693 59.8494C31.4949 59.8714 31.2924 59.8933 31.0943 59.8933C29.9631 59.9021 28.8362 59.9021 27.705 59.9065C25.4688 59.9109 23.2283 59.9109 20.9922 59.9153C20.2967 59.9153 19.5968 59.9197 18.9013 59.9197C18.7957 59.9197 18.6901 59.9065 18.5888 59.9021C18.6725 59.8362 18.7737 59.8626 18.8661 59.8626C19.5924 59.8582 20.3231 59.8538 21.0494 59.8538C23.3824 59.8494 25.7153 59.8494 28.0439 59.845C29.0475 59.845 30.0467 59.845 31.0503 59.8362C31.3144 59.8406 31.5741 59.8098 31.8382 59.7966Z" fill="#C3996A"/>
<path d="M61.7529 59.9109C61.6605 59.9153 61.5636 59.9241 61.4712 59.9241C59.7633 59.9241 58.051 59.9197 56.3431 59.9153C54.8641 59.9109 53.3895 59.9109 51.9105 59.9065C51.0653 59.9021 50.2202 59.9021 49.3794 59.8933C49.1285 59.8889 48.8732 59.8977 48.6355 59.7922C48.6575 59.7878 48.6795 59.7834 48.6972 59.7834C49.2342 59.8626 49.7712 59.8406 50.3082 59.8406C52.1526 59.845 54.0013 59.845 55.8457 59.845C56.9857 59.845 58.1258 59.8494 59.2615 59.8538C60.001 59.8538 60.7361 59.8582 61.4756 59.8626C61.5724 59.867 61.6693 59.8494 61.7529 59.9109Z" fill="#C3996A"/>
<path d="M15.9918 59.9198C15.9037 59.9726 15.8069 59.9506 15.7144 59.9506C13.9229 59.9638 12.1314 59.9682 10.3398 59.9858C8.7816 60.0034 7.22336 60.0297 5.66072 60.0561C5.31298 60.0605 4.96523 60.0649 4.61749 60.0649C4.54266 60.0649 4.47223 60.0517 4.3974 60.0473C4.45022 60.0034 4.51625 60.0077 4.57787 60.0077C5.48465 59.9946 6.39142 59.9814 7.29819 59.9726C8.92245 59.955 10.5423 59.933 12.1666 59.9198C13.3771 59.911 14.592 59.911 15.8025 59.9066C15.8685 59.9023 15.9301 59.9154 15.9918 59.9198Z" fill="#C3996A"/>
<path d="M58.5704 79.7845C58.5748 79.8681 58.6232 79.9032 58.6981 79.9208C58.4119 80.0395 58.1214 80.0043 57.8309 79.956C57.6548 79.9252 57.4876 79.8593 57.3247 79.7845C57.1794 79.7186 57.0474 79.6966 56.9241 79.8373C56.8933 79.8725 56.8361 79.8461 56.8361 79.7977C56.8405 79.3977 56.8493 78.9977 56.8537 78.5977C56.8537 78.5845 56.8801 78.5713 56.8977 78.5537C56.9593 78.6284 56.9769 78.7208 57.0034 78.8087C57.0738 79.0197 57.1574 79.2219 57.2895 79.4021C57.602 79.8373 57.985 79.9648 58.5044 79.7933C58.5308 79.7889 58.5528 79.7889 58.5704 79.7845Z" fill="#231E1E"/>
<path d="M74.3553 77.9515C74.2936 77.8679 74.2012 77.8943 74.122 77.8943C73.4485 77.8943 72.775 77.8943 72.0971 77.8943C71.9475 77.8943 71.8022 77.8943 71.6526 77.8943C71.5997 77.8943 71.5469 77.8855 71.5073 77.8459C71.9519 77.8459 72.3921 77.8416 72.8366 77.8459C73.3957 77.8547 73.9547 77.8679 74.5137 77.8811C74.9979 77.8899 75.4821 77.9031 75.9707 77.9119C76.0235 77.9119 76.0852 77.9075 76.1248 77.9295C76.2612 78.0174 76.4109 77.9778 76.5562 77.9778C76.5826 77.9778 76.631 77.9558 76.631 77.9339C76.6398 77.8811 76.587 77.8723 76.5518 77.8723C76.4065 77.8723 76.2568 77.8284 76.1204 77.9251C76.0896 77.9471 76.0367 77.9383 75.9971 77.9427C75.4821 77.9514 74.9627 77.9602 74.4477 77.969C74.4213 77.9646 74.3905 77.9558 74.3553 77.9515Z" fill="#231F1F"/>
<path d="M76.6002 5.17381C76.5342 5.19579 76.4725 5.19579 76.4241 5.17821C76.4241 4.78698 76.4241 4.40014 76.4241 4.01331C76.4241 3.89462 76.3933 3.86824 76.2701 3.86824C76.1468 3.86824 76.0192 3.86824 75.8959 3.88583C75.8123 3.89462 75.8123 3.84627 75.8123 3.79791C75.8123 3.76274 75.8123 3.71439 75.8783 3.71879C76.2965 3.74516 76.719 3.74076 77.1372 3.71879C77.2208 3.71439 77.2164 3.76714 77.212 3.81549C77.212 3.85506 77.2076 3.89022 77.146 3.88583C77.0007 3.87264 76.8511 3.87264 76.7058 3.87264C76.675 3.87264 76.6442 3.88583 76.6046 3.89902C76.6002 4.32102 76.6002 4.74741 76.6002 5.17381Z" fill="#231F1F"/>
<path d="M8.58352 77.8284C8.5307 77.8372 8.48228 77.8547 8.42946 77.8547C7.64153 77.8679 6.85361 77.8767 6.06569 77.8855C5.85 77.8899 5.63431 77.8855 5.357 77.8855C5.50666 77.9734 5.6167 77.9075 5.70474 77.9646C5.62551 78.013 5.54187 77.9954 5.45824 77.9954C5.01806 77.991 4.57348 77.991 4.1333 77.9778C3.8912 77.969 3.6535 77.9427 3.4114 77.9119C3.53465 77.8767 3.6579 77.8943 3.78555 77.8855C3.91321 77.8767 4.03646 77.8548 4.16411 77.8504C5.02686 77.8372 5.88962 77.824 6.75237 77.8152C7.25858 77.8108 7.76478 77.8064 8.26659 77.802C8.37223 77.8108 8.47788 77.824 8.58352 77.8284Z" fill="#C3996A"/>
<path d="M22.1411 79.156C22.1279 79.1077 22.1191 79.0593 22.0706 79.0286C22.0134 78.9934 22.0046 78.9319 22.009 78.8659C22.0398 78.9011 22.0882 78.9231 22.1147 78.8879C22.1587 78.8308 22.1807 78.756 22.2071 78.6901C22.4844 78.0131 22.7573 77.3406 23.0302 76.6636C23.0434 76.624 23.0699 76.5933 23.0919 76.5581C23.1051 76.6109 23.1051 76.668 23.1623 76.6944C23.1711 76.7603 23.1315 76.8131 23.1095 76.8702C22.8145 77.5867 22.5152 78.2989 22.2159 79.0154C22.1983 79.0637 22.1675 79.1077 22.1411 79.156Z" fill="#231F1F"/>
<path d="M38.19 60.1089C39.1761 60.1133 40.1621 60.1177 41.1481 60.1177C41.2317 60.1177 41.3153 60.1045 41.399 60.1001C41.4034 60.1441 41.4078 60.1924 41.3505 60.188C40.413 60.1441 39.4754 60.1748 38.5378 60.1616C38.441 60.1616 38.3485 60.166 38.2561 60.1924C38.2077 60.2056 38.1856 60.1572 38.19 60.1089Z" fill="#C39A6B"/>
<path d="M42.7327 79.3801C42.7239 79.345 42.7239 79.3054 42.6843 79.2878C42.7899 79.068 42.8824 78.8394 42.9352 78.5933C43.0276 78.624 43.0056 78.6856 42.9968 78.7251C42.9484 78.9625 42.9 79.1955 42.7327 79.3801Z" fill="#231F1F"/>
<path d="M4.3974 60.0473C4.393 60.0649 4.3886 60.0868 4.3886 60.1044C4.00124 60.1396 3.61388 60.1176 3.23093 60.078C3.61388 60.0429 4.00564 60.0121 4.3974 60.0473Z" fill="#C3996A"/>
<path d="M31.6534 59.1592C31.6754 59.1328 31.6974 59.1108 31.7194 59.0845C31.8074 59.212 31.8955 59.3482 32.0539 59.401C32.0715 59.4054 32.0891 59.401 32.1112 59.401C32.1068 59.3922 32.1112 59.379 32.1023 59.3702C32.0979 59.3658 32.0803 59.3614 32.0715 59.3658C32.0627 59.3658 32.0539 59.379 32.0451 59.379C31.8426 59.4361 31.7238 59.335 31.6534 59.1592Z" fill="#231F1F"/>
<path d="M48.6927 59.2207C48.6971 59.2515 48.7015 59.2822 48.7059 59.313C48.6311 59.4053 48.5387 59.4317 48.4286 59.3702C48.4022 59.357 48.3714 59.3438 48.345 59.3658C48.3714 59.3658 48.3978 59.3614 48.4286 59.3658C48.5475 59.379 48.6047 59.2735 48.6927 59.2207Z" fill="#231F1F"/>
<path d="M37.9347 59.6033C37.9567 59.6033 37.9788 59.5989 38.0008 59.5989C38.0624 59.7 38.124 59.7967 38.1108 59.9198C38.0052 59.8406 37.9656 59.7264 37.9347 59.6033Z" fill="#C39A6B"/>
<path d="M41.3946 60.1043C41.3814 60.0428 41.399 59.9944 41.4562 59.9636C41.4782 60.0296 41.4694 60.0779 41.3946 60.1043Z" fill="#C39A6B"/>
<path d="M22.0046 78.8438C21.9562 78.813 21.943 78.7691 21.9518 78.7163C21.987 78.7559 22.0134 78.791 22.0046 78.8438Z" fill="#231F1F"/>
<path d="M31.649 58.6626C31.649 58.7066 31.6402 58.7505 31.6005 58.7813C31.5917 58.7285 31.6137 58.6934 31.649 58.6626Z" fill="#231F1F"/>
<path d="M38.1284 59.9724C38.1636 59.9856 38.1768 60.012 38.1636 60.0471C38.1284 60.0383 38.1152 60.012 38.1284 59.9724Z" fill="#C39A6B"/>
<path d="M23.1623 76.6944C23.1535 76.6636 23.1667 76.6372 23.1975 76.6284C23.2063 76.6636 23.1887 76.6812 23.1623 76.6944Z" fill="#231F1F"/>
<path d="M31.627 59.1064C31.6402 59.1196 31.649 59.1328 31.6534 59.1548C31.627 59.146 31.6138 59.1328 31.627 59.1064Z" fill="#231F1F"/>
<path d="M31.7194 58.8648C31.7326 58.8384 31.7458 58.8076 31.759 58.7812C31.7458 58.812 31.7326 58.8384 31.7194 58.8648Z" fill="#231F1F"/>
<path d="M58.6452 79.7319C58.6364 79.7671 58.6144 79.7847 58.5748 79.7803C58.5836 79.7451 58.6056 79.7319 58.6452 79.7319Z" fill="#231E1E"/>
<path d="M40.7827 48.1872C40.7915 48.4905 40.6815 48.7455 40.4526 48.9433C40.14 49.2158 39.6955 49.2114 39.3829 48.9433C38.9428 48.5652 38.9428 47.8004 39.3873 47.4267C39.7219 47.1454 40.1268 47.1542 40.457 47.4267C40.6286 47.5762 40.7959 47.8487 40.7827 48.1872Z" fill="#C3996A"/>
<path d="M40.7827 52.7722C40.7871 53.0887 40.6639 53.3349 40.435 53.5283C40.1312 53.7877 39.6999 53.7833 39.3917 53.5195C38.9692 53.1547 38.9296 52.4865 39.3081 52.0733C39.647 51.6996 40.2413 51.7172 40.5582 52.1085C40.7123 52.3019 40.7827 52.5173 40.7827 52.7722Z" fill="#C3996A"/>
<path d="M38.9692 64.4651C39.0044 64.5266 39.0352 64.5706 39.0528 64.6189C39.5018 65.7267 39.9508 66.8388 40.4041 67.9466C40.4174 67.9774 40.4306 68.0037 40.4394 68.0345C40.4438 68.0653 40.4306 68.0961 40.3953 68.1049C40.3425 68.1092 40.2897 68.1136 40.2369 68.1136C39.4269 68.1136 38.6126 68.1136 37.8027 68.1136C37.7499 68.1136 37.697 68.1092 37.6442 68.1049C37.609 68.1005 37.5958 68.0653 37.5958 68.0345C37.6002 67.9949 37.6134 67.951 37.6266 67.9114C38.0448 66.8125 38.4674 65.7135 38.8899 64.6145C38.9075 64.5662 38.9383 64.5266 38.9692 64.4651Z" fill="white"/>
<path d="M27.9603 76.5888C27.9603 76.2943 27.9603 75.9998 27.9603 75.7052C27.9603 75.6261 27.9955 75.5909 28.0747 75.5909C28.2112 75.5909 28.3476 75.5865 28.4841 75.5953C28.9154 75.6217 29.1884 75.8327 29.3204 76.2415C29.4085 76.5097 29.4129 76.7822 29.3028 77.046C29.1708 77.3625 28.9463 77.5603 28.5897 77.5867C28.5369 77.5911 28.4841 77.5998 28.4313 77.5998C27.859 77.6042 27.9691 77.6878 27.9559 77.1559C27.9559 76.9668 27.9559 76.7778 27.9603 76.5888Z" fill="white"/>
</g>
<defs>
<clipPath id="clip0_33_1403">
<rect width="80" height="80" fill="white"/>
</clipPath>
</defs>
</svg>
