<svg width="30" height="30" viewBox="0 0 30 30" fill="none" xmlns="http://www.w3.org/2000/svg">
<rect width="30" height="30" rx="15" fill="#0A0F1A"/>
<path d="M20.25 23.0625C19.9425 23.0625 19.6875 22.8075 19.6875 22.5V14.25C19.6875 13.9425 19.9425 13.6875 20.25 13.6875C20.5575 13.6875 20.8125 13.9425 20.8125 14.25V22.5C20.8125 22.8075 20.5575 23.0625 20.25 23.0625Z" fill="white"/>
<path d="M20.25 11.8125C19.9425 11.8125 19.6875 11.5575 19.6875 11.25V7.5C19.6875 7.1925 19.9425 6.9375 20.25 6.9375C20.5575 6.9375 20.8125 7.1925 20.8125 7.5V11.25C20.8125 11.5575 20.5575 11.8125 20.25 11.8125Z" fill="white"/>
<path d="M15 23.0625C14.6925 23.0625 14.4375 22.8075 14.4375 22.5V18.75C14.4375 18.4425 14.6925 18.1875 15 18.1875C15.3075 18.1875 15.5625 18.4425 15.5625 18.75V22.5C15.5625 22.8075 15.3075 23.0625 15 23.0625Z" fill="white"/>
<path d="M15 16.3125C14.6925 16.3125 14.4375 16.0575 14.4375 15.75V7.5C14.4375 7.1925 14.6925 6.9375 15 6.9375C15.3075 6.9375 15.5625 7.1925 15.5625 7.5V15.75C15.5625 16.0575 15.3075 16.3125 15 16.3125Z" fill="white"/>
<path d="M9.75 23.0625C9.4425 23.0625 9.1875 22.8075 9.1875 22.5V14.25C9.1875 13.9425 9.4425 13.6875 9.75 13.6875C10.0575 13.6875 10.3125 13.9425 10.3125 14.25V22.5C10.3125 22.8075 10.0575 23.0625 9.75 23.0625Z" fill="white"/>
<path d="M9.75 11.8125C9.4425 11.8125 9.1875 11.5575 9.1875 11.25V7.5C9.1875 7.1925 9.4425 6.9375 9.75 6.9375C10.0575 6.9375 10.3125 7.1925 10.3125 7.5V11.25C10.3125 11.5575 10.0575 11.8125 9.75 11.8125Z" fill="white"/>
<path d="M11.25 14.8125H8.25C7.9425 14.8125 7.6875 14.5575 7.6875 14.25C7.6875 13.9425 7.9425 13.6875 8.25 13.6875H11.25C11.5575 13.6875 11.8125 13.9425 11.8125 14.25C11.8125 14.5575 11.5575 14.8125 11.25 14.8125Z" fill="white"/>
<path d="M21.75 14.8125H18.75C18.4425 14.8125 18.1875 14.5575 18.1875 14.25C18.1875 13.9425 18.4425 13.6875 18.75 13.6875H21.75C22.0575 13.6875 22.3125 13.9425 22.3125 14.25C22.3125 14.5575 22.0575 14.8125 21.75 14.8125Z" fill="white"/>
<path d="M16.5 16.3125H13.5C13.1925 16.3125 12.9375 16.0575 12.9375 15.75C12.9375 15.4425 13.1925 15.1875 13.5 15.1875H16.5C16.8075 15.1875 17.0625 15.4425 17.0625 15.75C17.0625 16.0575 16.8075 16.3125 16.5 16.3125Z" fill="white"/>
</svg>
