<svg width="42" height="42" viewBox="0 0 42 42" fill="none" xmlns="http://www.w3.org/2000/svg">
<rect opacity="0.15" width="42" height="42" rx="10" fill="#C39A6B"/>
<path fill-rule="evenodd" clip-rule="evenodd" d="M28 17.9995C28.0023 19.4284 27.5652 20.8234 26.748 21.9955H26.75L21.843 29.6795C21.7526 29.8212 21.628 29.9378 21.4807 30.0185C21.3333 30.0993 21.168 30.1416 21 30.1416C20.832 30.1416 20.6667 30.0993 20.5193 30.0185C20.372 29.9378 20.2474 29.8212 20.157 29.6795L15.274 22.0265C14.6412 21.1267 14.2294 20.0903 14.072 19.0016C13.9146 17.9128 14.016 16.8022 14.3681 15.76C14.7201 14.7178 15.3128 13.7732 16.0981 13.0028C16.8835 12.2325 17.8393 11.6581 18.8881 11.3262C19.937 10.9943 21.0492 10.9143 22.1348 11.0926C23.2203 11.2709 24.2485 11.7026 25.1361 12.3526C26.0236 13.0026 26.7454 13.8526 27.243 14.8337C27.7406 15.8149 27.9999 16.8994 28 17.9995ZM21 21.9995C22.0609 21.9995 23.0783 21.5781 23.8284 20.828C24.5786 20.0778 25 19.0604 25 17.9995C25 16.9387 24.5786 15.9212 23.8284 15.1711C23.0783 14.421 22.0609 13.9995 21 13.9995C19.9391 13.9995 18.9217 14.421 18.1716 15.1711C17.4214 15.9212 17 16.9387 17 17.9995C17 19.0604 17.4214 20.0778 18.1716 20.828C18.9217 21.5781 19.9391 21.9995 21 21.9995Z" fill="#C39A6B"/>
</svg>
