<svg width="102" height="28" viewBox="0 0 102 28" fill="none" xmlns="http://www.w3.org/2000/svg">
<path d="M74.0431 7.0511C73.7849 7.65641 73.5211 8.25611 73.2629 8.86142C72.0395 11.7254 70.8216 14.5894 69.5981 17.459C69.5532 17.5711 69.5027 17.6832 69.4466 17.7897C69.4017 17.8682 69.2501 17.8626 69.2109 17.7785C69.1491 17.644 69.093 17.5095 69.0313 17.375C67.6282 14.1186 66.2251 10.8623 64.822 7.61157C64.7659 7.48267 64.7042 7.35376 64.6425 7.21925C64.5414 7.26969 64.5751 7.34255 64.5695 7.39859C64.5639 7.46585 64.5695 7.5331 64.5695 7.60036C64.5695 9.36024 64.5695 11.1257 64.5695 12.8856C64.5695 13.816 64.5751 14.7408 64.5863 15.6711C64.5863 15.8841 64.6088 16.0971 64.6537 16.3101C64.8108 17.0331 65.2935 17.4927 66.0231 17.5992C66.1185 17.6104 66.2083 17.616 66.3037 17.6272C66.343 17.6328 66.3879 17.6384 66.4159 17.6608C66.444 17.6832 66.4608 17.7281 66.4665 17.7617C66.4777 17.8065 66.444 17.8402 66.4047 17.8458C66.3374 17.857 66.27 17.8514 66.2027 17.8514C65.0016 17.8514 63.8062 17.8514 62.6052 17.8514C62.5659 17.8514 62.5266 17.8514 62.4817 17.8514C62.3246 17.8458 62.2516 17.8121 62.2628 17.7449C62.2909 17.6216 62.3975 17.6328 62.4873 17.6216C62.622 17.5992 62.7567 17.5936 62.8858 17.5599C63.5705 17.3862 63.969 16.949 64.0924 16.254C64.1542 15.9065 64.1766 15.559 64.1766 15.2116C64.1766 14.0402 64.1766 12.8744 64.1766 11.703C64.1766 10.5484 64.1766 9.38826 64.1766 8.2337C64.1766 7.85818 64.1542 7.48267 64.1093 7.10715C64.0251 6.32249 63.5424 5.80125 62.6725 5.66114C62.5547 5.64432 62.4368 5.62751 62.319 5.59948C62.2909 5.59388 62.2685 5.53784 62.2628 5.50421C62.2572 5.46497 62.2853 5.42574 62.3302 5.42014C62.3975 5.40893 62.4649 5.40892 62.5322 5.40892C63.6771 5.40892 64.822 5.40892 65.967 5.40892C66.0062 5.40892 66.0455 5.40892 66.0904 5.40892C66.1971 5.40332 66.2532 5.45377 66.2981 5.56025C66.5282 6.13193 66.7639 6.70361 66.994 7.27529C67.9986 9.75257 69.0032 12.2299 70.0078 14.7015C70.0583 14.8192 70.0752 14.9593 70.193 15.049C70.3053 14.9425 70.3333 14.808 70.3838 14.6903C71.6298 11.731 72.8757 8.77735 74.116 5.81807C74.1385 5.76763 74.1665 5.72279 74.1777 5.66674C74.2226 5.45936 74.3461 5.40332 74.5538 5.40332C75.6426 5.41453 76.737 5.40892 77.8257 5.40892C77.8987 5.40892 77.9941 5.3753 78.0222 5.48739C78.0446 5.56586 77.9773 5.6219 77.8314 5.63872C77.6574 5.66113 77.4834 5.67235 77.315 5.7284C76.6977 5.93017 76.3104 6.32249 76.2038 6.97824C76.1477 7.32573 76.1252 7.67322 76.1252 8.02071C76.1252 10.4419 76.1252 12.8632 76.1252 15.2788C76.1252 15.5871 76.1477 15.8953 76.1926 16.2036C76.3273 17.1284 76.9783 17.4646 77.6069 17.5936C77.7135 17.616 77.8201 17.6216 77.9268 17.6384C77.9885 17.6496 78.0166 17.6944 78.0222 17.7505C78.0222 17.8121 77.9885 17.8458 77.9212 17.8458C77.8426 17.8458 77.7584 17.8458 77.6798 17.8458C75.9681 17.8458 74.2619 17.8458 72.5502 17.8458C72.4435 17.8458 72.3313 17.8682 72.2303 17.8177C72.2134 17.8065 72.1966 17.7785 72.1966 17.7561C72.1966 17.7337 72.2022 17.6888 72.2134 17.6832C72.2752 17.6552 72.3369 17.6328 72.3987 17.6216C72.5558 17.5936 72.7186 17.5879 72.8757 17.5431C73.5211 17.3525 73.9027 16.9322 74.0262 16.2764C74.0767 16.013 74.1104 15.744 74.1104 15.475C74.1104 15.2844 74.116 15.0995 74.116 14.9089C74.116 12.4092 74.116 9.9095 74.116 7.4042C74.116 7.2921 74.1104 7.17441 74.1104 7.06231C74.0992 7.05671 74.0711 7.05671 74.0431 7.0511Z" fill="white"/>
<path d="M15.8323 5.40332C17.1456 8.63723 18.4476 11.8487 19.7553 15.077C19.8956 14.9649 19.918 14.8192 19.9685 14.6959C21.2145 11.7366 22.4604 8.78296 23.7007 5.82367C23.7568 5.68916 23.8186 5.55464 23.8803 5.41453C23.9701 5.40892 24.0543 5.40332 24.1329 5.40332C25.1992 5.40332 26.2599 5.40332 27.3263 5.40332C27.4048 5.40332 27.489 5.40332 27.5676 5.41453C27.6069 5.42013 27.6462 5.45376 27.6349 5.49299C27.6293 5.52662 27.6069 5.57707 27.5788 5.58828C27.5059 5.6163 27.4217 5.6219 27.3431 5.63872C27.1972 5.66674 27.0513 5.67795 26.911 5.72279C26.2768 5.92456 25.8951 6.34491 25.7997 7.01748C25.7492 7.39299 25.7211 7.7629 25.7211 8.14402C25.7211 10.4812 25.7211 12.8239 25.7211 15.1611C25.7211 15.4862 25.7324 15.8057 25.7829 16.1251C25.9176 16.977 26.3946 17.459 27.2589 17.5936C27.3656 17.6104 27.4722 17.6272 27.5732 17.6552C27.6013 17.6608 27.6237 17.7113 27.6293 17.7505C27.6349 17.7897 27.6069 17.8233 27.5676 17.8346C27.5283 17.8402 27.489 17.8458 27.4497 17.8458C25.6314 17.8458 23.813 17.8458 21.9946 17.8458C21.9441 17.8458 21.8879 17.8346 21.8374 17.8177C21.8206 17.8121 21.8038 17.7785 21.8038 17.7561C21.8038 17.7337 21.8094 17.7 21.8262 17.6832C21.8767 17.6272 21.9441 17.6216 22.0114 17.616C22.1966 17.5992 22.3874 17.5823 22.567 17.5207C23.117 17.3301 23.4762 16.9602 23.6109 16.3941C23.6614 16.1868 23.6839 15.9682 23.7007 15.7552C23.7176 15.4862 23.7176 15.2172 23.7232 14.9481C23.7232 12.4484 23.7232 9.94874 23.7232 7.44343C23.7232 7.31453 23.7119 7.19122 23.7063 7.01187C23.566 7.15759 23.5324 7.30331 23.4762 7.43222C22.0451 10.7782 20.6196 14.1242 19.1884 17.4703C19.1435 17.5711 19.1099 17.672 19.0594 17.7673C19.0032 17.8738 18.8517 17.8682 18.8012 17.7617C18.7563 17.6776 18.7282 17.5879 18.6889 17.5039C17.2634 14.1971 15.8379 10.8959 14.4124 7.58915C14.3562 7.46025 14.3226 7.32013 14.2103 7.20243C14.1374 7.30892 14.1654 7.39859 14.1654 7.48827C14.1654 10.044 14.1654 12.5998 14.1654 15.1555C14.1654 15.5198 14.1823 15.8785 14.2328 16.2428C14.3226 16.8649 14.7828 17.5039 15.6695 17.6048C15.7762 17.616 15.8828 17.6272 15.9894 17.6496C16.0399 17.6608 16.0736 17.7112 16.068 17.7729C16.0624 17.8233 16.0287 17.8402 15.9894 17.8458C15.9221 17.857 15.8547 17.8514 15.7874 17.8514C14.5751 17.8514 13.3629 17.8514 12.1506 17.8514C12.0833 17.8514 12.0159 17.8514 11.9486 17.8458C11.9093 17.8402 11.8756 17.8233 11.87 17.7729C11.8644 17.7112 11.8981 17.6608 11.9486 17.6496C12.0552 17.6272 12.1618 17.616 12.2685 17.6048C13.0542 17.5039 13.5817 16.9938 13.6996 16.2428C13.7445 15.9346 13.7726 15.6263 13.7726 15.318C13.7726 14.1747 13.7726 13.0313 13.7782 11.888C13.7782 10.6661 13.7782 9.4387 13.7782 8.21688C13.7782 7.82455 13.7613 7.43783 13.7108 7.0511C13.6266 6.39535 13.2226 5.82367 12.3021 5.66674C12.1843 5.64432 12.0608 5.63872 11.943 5.61069C11.8981 5.59948 11.8644 5.54344 11.8756 5.48179C11.8868 5.43135 11.9261 5.42013 11.9598 5.41453C12.0271 5.40892 12.0945 5.40892 12.1618 5.40892C13.3067 5.40892 14.4517 5.40892 15.5966 5.40892C15.6639 5.40332 15.7313 5.40332 15.8323 5.40332Z" fill="white"/>
<path d="M47.7271 12.8686C47.424 13.6645 47.1153 14.466 46.8123 15.2731C46.7112 15.5365 46.6551 15.8111 46.6327 16.0969C46.5653 16.82 46.975 17.4141 47.7495 17.5934C47.8505 17.6158 47.9684 17.599 48.0526 17.6775C48.075 17.6999 48.0806 17.7503 48.0806 17.784C48.0806 17.8008 48.0526 17.8288 48.0357 17.8344C47.9684 17.8456 47.901 17.8512 47.8337 17.8512C46.6383 17.8512 45.4372 17.8512 44.2418 17.8512C44.1857 17.8512 44.1352 17.8512 44.0791 17.8456C44.0398 17.84 44.0061 17.8176 44.0061 17.7671C44.0061 17.7279 44.0061 17.6831 44.051 17.6663C44.1015 17.6495 44.152 17.627 44.2025 17.6214C44.7189 17.5654 45.1005 17.2907 45.426 16.9096C45.7066 16.579 45.9255 16.209 46.1107 15.8223C46.4026 15.2058 46.6551 14.5669 46.9021 13.9279C47.9572 11.2152 49.0123 8.49697 50.0674 5.7843C50.0786 5.76188 50.0898 5.73385 50.1011 5.71144C50.2301 5.38636 50.1909 5.4312 50.5332 5.41438C50.7296 5.40317 50.7858 5.50967 50.8419 5.65539C51.521 7.30317 52.2057 8.95656 52.8904 10.6043C53.5582 12.2185 54.2261 13.827 54.8996 15.4412C55.0006 15.6878 55.1128 15.9344 55.2307 16.1754C55.3037 16.3323 55.3935 16.4837 55.4776 16.635C55.7975 17.2011 56.2802 17.5261 56.9256 17.599C57.0323 17.6102 57.1389 17.6214 57.2455 17.6382C57.3016 17.6495 57.3353 17.6943 57.3409 17.7503C57.3465 17.812 57.3073 17.8456 57.2455 17.8512C57.1669 17.8568 57.0828 17.8568 57.0042 17.8568C55.2419 17.8568 53.4797 17.8568 51.7118 17.8568C51.6164 17.8568 51.521 17.8568 51.4312 17.8456C51.3919 17.84 51.3582 17.812 51.3582 17.7671C51.3582 17.7279 51.3582 17.6831 51.4031 17.6663C51.4649 17.6438 51.5322 17.6326 51.5939 17.6158C51.7679 17.5822 51.9419 17.5654 52.1103 17.5205C52.8286 17.33 53.1654 16.7639 53.0026 16.0465C52.9633 15.8784 52.9184 15.7046 52.8511 15.5477C52.5144 14.7126 52.172 13.8831 51.8409 13.048C51.7904 12.9247 51.7342 12.8462 51.5827 12.8462C50.3424 12.8518 49.1077 12.8518 47.8674 12.8518C47.8169 12.8406 47.7776 12.8574 47.7271 12.8686ZM49.6858 7.8132C49.6465 7.89166 49.6072 7.94771 49.5847 8.00936C49.0459 9.41054 48.5128 10.8117 47.974 12.2129C47.9572 12.2633 47.9403 12.3138 47.9347 12.3698C47.9291 12.4091 47.9459 12.4539 47.9965 12.4595C48.0638 12.4707 48.1311 12.4707 48.1985 12.4707C49.2312 12.4707 50.2694 12.4707 51.3021 12.4707C51.3694 12.4707 51.4368 12.4651 51.5041 12.4595C51.549 12.4539 51.5659 12.4091 51.5603 12.3698C51.5546 12.3306 51.5322 12.297 51.5154 12.2577C50.9429 10.8397 50.3705 9.42735 49.7924 8.01497C49.7643 7.9421 49.7306 7.89166 49.6858 7.8132Z" fill="white"/>
<path d="M35.133 11.6243C35.133 10.5482 35.133 9.4721 35.133 8.4016C35.133 8.06532 35.1218 7.72904 35.105 7.39276C35.0994 7.24704 35.0769 7.09571 35.0489 6.95559C34.8973 6.21016 34.4034 5.76179 33.6514 5.6553C33.5448 5.63849 33.4381 5.63288 33.3315 5.62167C33.2641 5.61607 33.2417 5.56563 33.2361 5.50958C33.2305 5.45353 33.2585 5.40869 33.3259 5.40869C33.4044 5.40869 33.4886 5.40869 33.5672 5.40869C35.2733 5.40869 36.9851 5.40869 38.6912 5.40869C38.7866 5.40869 38.8821 5.40869 38.9718 5.41429C39.0111 5.4199 39.0448 5.43672 39.0504 5.48716C39.056 5.54881 39.028 5.58804 38.9718 5.61046C38.9326 5.62167 38.8933 5.62727 38.854 5.63288C38.7866 5.63848 38.7193 5.64409 38.6519 5.6553C37.8382 5.76179 37.305 6.28863 37.204 7.09571C37.1647 7.4432 37.1366 7.79069 37.1366 8.13819C37.131 10.4753 37.1366 12.8125 37.131 15.1497C37.131 15.486 37.1591 15.8222 37.204 16.1529C37.3218 16.9936 37.8101 17.4756 38.6463 17.5933C38.7417 17.6045 38.8315 17.6157 38.9269 17.6269C38.9999 17.6382 39.0504 17.6718 39.0448 17.7559C39.0392 17.8287 38.9831 17.8343 38.9326 17.8343C38.8764 17.8399 38.8259 17.8399 38.7698 17.8399C37.0075 17.8399 35.2453 17.8399 33.483 17.8399C33.4269 17.8399 33.3764 17.8399 33.3203 17.8399C33.2529 17.8399 33.2249 17.8007 33.2249 17.739C33.2305 17.683 33.2585 17.6382 33.3203 17.6269C33.4269 17.6157 33.5335 17.6045 33.6402 17.5877C34.4371 17.4868 34.9591 16.9151 35.0432 16.2874C35.0657 16.1305 35.0994 15.968 35.0994 15.811C35.1162 15.2057 35.1218 14.6004 35.1274 13.9951C35.133 13.2104 35.133 12.4146 35.133 11.6243Z" fill="white"/>
<path d="M85.5313 11.5794C85.5313 10.4249 85.537 9.27031 85.5313 8.11014C85.5313 7.73462 85.5313 7.3591 85.4584 6.98359C85.3069 6.22135 84.8186 5.75056 84.0497 5.64967C83.9318 5.63286 83.8084 5.62165 83.6961 5.59363C83.6681 5.58802 83.6456 5.53197 83.64 5.49834C83.6344 5.45911 83.6568 5.41427 83.7017 5.40867C83.7523 5.39746 83.8084 5.39746 83.8645 5.39746C85.638 5.39746 87.4171 5.39746 89.1906 5.39746C89.2579 5.39746 89.3253 5.39746 89.3926 5.40867C89.4319 5.41427 89.4656 5.43669 89.4656 5.48713C89.4656 5.52637 89.4656 5.57121 89.4151 5.58802C89.3645 5.60484 89.314 5.62165 89.2635 5.62725C89.1681 5.63846 89.0783 5.64407 88.9829 5.66088C88.2477 5.77858 87.7482 6.283 87.6304 7.01161C87.5742 7.34229 87.5518 7.67857 87.5518 8.01485C87.5518 10.4193 87.5518 12.8237 87.5518 15.2281C87.5518 15.5532 87.5798 15.8726 87.6304 16.1921C87.7538 16.988 88.2309 17.4644 89.0278 17.5821C89.1344 17.5989 89.2411 17.6045 89.3477 17.6213C89.4207 17.6325 89.4712 17.6718 89.4656 17.7558C89.46 17.8287 89.4038 17.8287 89.3477 17.8343C89.2804 17.8399 89.213 17.8399 89.1457 17.8399C87.4115 17.8399 85.6717 17.8399 83.9375 17.8399C83.8701 17.8399 83.8028 17.8399 83.7354 17.8343C83.6737 17.8343 83.6344 17.7951 83.64 17.7334C83.6456 17.6774 83.6793 17.6325 83.741 17.6213C83.8477 17.6045 83.9543 17.5989 84.0609 17.5821C84.841 17.4868 85.3798 16.9095 85.4696 16.2426C85.5033 15.9903 85.5313 15.7381 85.5313 15.4803C85.5313 14.1744 85.5313 12.8741 85.5313 11.5682C85.5257 11.5794 85.5313 11.5794 85.5313 11.5794Z" fill="white"/>
<path d="M61.3145 21.8753C62.7512 21.8753 64.1824 21.8753 65.6416 21.8753C65.7145 22.3013 65.7089 22.7272 65.7314 23.1476C65.636 23.1812 65.6303 23.1252 65.6191 23.0747C65.462 22.3741 64.9737 22.0098 64.2104 22.0042C63.8625 21.9986 63.5089 21.9986 63.1609 21.9986C63.0655 21.9986 63.0094 22.0435 63.0094 22.1443C63.0094 22.2676 63.0094 22.3853 63.0094 22.5086C63.0094 23.114 63.0094 23.7193 63.0094 24.3246C63.0094 24.3526 63.0206 24.375 63.0262 24.4142C63.2283 24.4815 63.4472 24.4535 63.6548 24.4367C64.0196 24.403 64.2385 24.1957 64.3339 23.8426C64.362 23.7417 64.3339 23.624 64.4125 23.5343C64.4181 23.5287 64.4349 23.5231 64.4462 23.5231C64.4574 23.5231 64.4798 23.5287 64.4854 23.5343C64.4911 23.5567 64.4967 23.5848 64.4967 23.6128C64.4911 24.2461 64.4854 24.8738 64.4798 25.5072C64.4798 25.5632 64.4742 25.6137 64.4069 25.6361C64.3227 25.524 64.3395 25.3839 64.3002 25.255C64.1543 24.8234 63.9354 24.6384 63.4865 24.5992C63.4191 24.5936 63.3518 24.588 63.2844 24.588C62.9982 24.5768 63.0094 24.6216 63.015 24.857C63.015 25.339 63.0038 25.8266 63.0487 26.3086C63.0599 26.4432 63.0824 26.5721 63.1273 26.701C63.2451 26.998 63.4584 27.1886 63.7615 27.2726C64.1992 27.3903 64.6426 27.3679 65.0747 27.2446C65.4564 27.1325 65.7258 26.8747 65.8941 26.5216C65.9671 26.3647 66.0232 26.1965 66.0625 26.0284C66.0737 25.9724 66.0793 25.8939 66.1635 25.8827C66.2253 25.9219 66.2028 25.978 66.2028 26.0228C66.1916 26.4376 66.1747 26.8579 66.1523 27.2726C66.1411 27.4632 66.1411 27.4632 65.9334 27.4688C65.8661 27.4688 65.7987 27.4688 65.7314 27.4688C63.4865 27.4688 61.2359 27.4688 58.991 27.4688C58.8451 27.4688 58.6992 27.4912 58.4971 27.4184C58.6655 27.3679 58.7777 27.3455 58.8788 27.3063C59.0808 27.2278 59.1425 27.0933 59.0696 26.8915C59.0359 26.8019 58.991 26.7178 58.9405 26.6449C58.4747 25.9555 57.9247 25.3222 57.4027 24.6721C57.3578 24.616 57.2961 24.5992 57.2343 24.6553C57.1277 24.7449 57.0548 24.8402 57.0604 24.9971C57.0716 25.496 57.066 25.9892 57.0716 26.488C57.0716 26.5833 57.0772 26.6785 57.094 26.7682C57.1502 27.0373 57.3073 27.2278 57.5711 27.3175C57.6721 27.3511 57.7787 27.3679 57.9415 27.4072C57.6104 27.508 57.3298 27.4576 57.0604 27.4632C56.7629 27.4744 56.4655 27.4688 56.1736 27.4632C55.893 27.4632 55.618 27.4744 55.3206 27.4464C55.3767 27.3231 55.4665 27.3623 55.5338 27.3455C55.9042 27.2446 56.0838 27.0485 56.1287 26.6729C56.1512 26.4712 56.1568 26.2694 56.1568 26.0676C56.1624 25.126 56.1568 24.1845 56.1568 23.2429C56.1568 23.0523 56.1456 22.8674 56.1287 22.6768C56.1063 22.3125 55.9211 22.0771 55.5619 21.9874C55.4889 21.9706 55.416 21.9482 55.343 21.9258C55.3374 21.8809 55.3486 21.8641 55.3767 21.8585C56.2017 21.8473 57.0267 21.8473 57.8573 21.8585C57.8517 21.9706 57.7787 21.937 57.7395 21.9538C57.6889 21.9762 57.6384 21.9874 57.5823 21.9986C57.2905 22.0827 57.1446 22.2901 57.0884 22.5759C57.0772 22.6432 57.0716 22.7104 57.0716 22.7777C57.0716 23.3269 57.066 23.8818 57.066 24.4311C57.066 24.4647 57.0772 24.4815 57.1277 24.4927C57.1838 24.4927 57.2175 24.4311 57.2568 24.3862C57.79 23.8594 58.3288 23.3269 58.8619 22.7945C58.9573 22.6992 59.0527 22.5983 59.1201 22.4862C59.2267 22.3237 59.1706 22.1275 58.9966 22.0379C58.8956 21.9874 58.7833 21.9538 58.6823 21.9202C58.6767 21.8641 58.6879 21.8529 58.7272 21.8529C59.2492 21.8529 59.7767 21.8529 60.2987 21.8529C60.338 21.8529 60.3548 21.8585 60.3492 21.9089C60.3211 21.9706 60.2482 21.965 60.192 21.9818C60.0068 22.0323 59.8441 22.1275 59.7038 22.2564C59.1257 22.8001 58.5476 23.3438 57.9808 23.8762C57.992 24.0051 58.065 24.0668 58.1211 24.1396C58.7609 24.9523 59.4007 25.765 60.0405 26.5833C60.2425 26.8411 60.4726 27.0597 60.7589 27.2166C60.9665 27.3287 61.1854 27.3791 61.4211 27.3399C61.7747 27.2895 62.0048 27.0709 62.0665 26.7178C62.089 26.6001 62.089 26.4768 62.089 26.3535C62.089 25.2269 62.089 24.0948 62.089 22.9682C62.089 22.873 62.0834 22.7777 62.0722 22.688C62.0385 22.2789 61.8084 22.0379 61.4716 21.9762C61.4099 21.965 61.3482 21.9426 61.2864 21.9258C61.3089 21.9146 61.3089 21.8977 61.3145 21.8753Z" fill="white"/>
<path d="M40.4422 0.67282C40.4422 0.7681 40.4422 0.857775 40.4422 0.953055C40.4142 0.986683 40.3861 1.01471 40.358 1.04834L40.3524 1.04273C40.3468 1.02031 40.3356 0.997892 40.3187 0.981078C40.2233 0.846565 40.2514 0.706448 40.2851 0.560726C40.3356 0.521493 40.3468 0.471053 40.3468 0.409402C40.4534 0.117957 40.6779 0.00585938 40.9698 0.00585938C41.0371 0.00585938 41.1045 0.0114682 41.1718 0.0170729C41.4468 0.0282823 41.6096 0.168397 41.7218 0.420608C41.879 0.779309 41.9295 1.13801 41.8004 1.51913C41.7218 1.75453 41.5703 1.93948 41.3626 2.0796C41.0427 2.30379 40.6779 2.38226 40.3019 2.42709C39.8866 2.47754 39.4713 2.49435 39.0504 2.49435C36.682 2.48874 34.3136 2.48875 31.9452 2.47754C30.5197 2.47193 29.0941 2.46632 27.663 2.46072C25.3732 2.44951 23.089 2.4383 20.7992 2.42709C19.7216 2.42149 18.644 2.41588 17.5665 2.40467C14.5527 2.37665 11.5389 2.35423 8.52507 2.3206C7.54292 2.30939 6.56077 2.27577 5.57861 2.25335C5.57861 2.22533 5.58423 2.2029 5.58984 2.18048H5.59545C5.69086 2.18609 5.78066 2.20291 5.87606 2.20291C6.31944 2.20291 6.76281 2.1973 7.20618 2.19169C9.19293 2.16367 11.1797 2.12444 13.1721 2.10202C15.4563 2.0796 17.7405 2.074 20.0247 2.05718C20.1425 2.05718 20.266 2.0796 20.3782 2.01795C21.4839 2.01234 22.5839 2.00674 23.6895 2.00114C23.8242 2.00674 23.9589 2.02355 24.088 2.02355C24.9747 2.02355 25.8671 2.01795 26.7538 2.01795C29.6049 2.01234 32.4615 2.01235 35.3126 2.00674C36.7549 2.00674 38.1917 2.00113 39.634 1.98992C39.8866 1.98992 40.1448 1.9563 40.3973 1.93388C40.4591 1.92827 40.5208 1.88904 40.5825 1.86662C40.8014 1.8442 40.9978 1.77134 41.1718 1.64244C41.5478 1.3566 41.5871 0.812941 41.2616 0.487869C41.0371 0.263681 40.807 0.263681 40.5657 0.487869C40.5376 0.515892 40.5096 0.543916 40.4815 0.571939C40.4759 0.605568 40.4591 0.639192 40.4422 0.67282Z" fill="white"/>
<path d="M62.0832 1.12693C62.145 0.96439 62.2011 0.807464 62.1281 0.628114C61.9822 0.286227 61.6174 0.20776 61.3536 0.465576C61.0225 0.790649 61.0562 1.3343 61.4266 1.62575C61.6006 1.76026 61.797 1.83312 62.0159 1.85554C62.319 1.99005 62.6445 1.98445 62.9644 1.98445C64.0419 1.99566 65.1195 1.99566 66.1915 2.00127C68.0772 2.00687 69.9573 2.01247 71.843 2.01247C74.0206 2.01808 76.2038 2.01807 78.3814 2.02368C78.4992 2.02368 78.6227 2.01247 78.7406 2.00687C79.2793 2.00687 79.8125 2.01247 80.3513 2.01247C80.4355 2.06291 80.5365 2.0461 80.6263 2.0461C83.2921 2.06852 85.958 2.07973 88.6238 2.10775C90.3748 2.12456 92.1203 2.15819 93.8713 2.18622C94.1126 2.19182 94.354 2.19743 94.6178 2.20303C94.5392 2.26468 94.4718 2.25348 94.4101 2.25348C93.7086 2.27029 93.0126 2.27589 92.3111 2.29831C91.9519 2.30952 91.5871 2.2759 91.2279 2.33755C90.4366 2.34315 89.6396 2.35436 88.8483 2.35996C85.986 2.38238 83.1181 2.4048 80.2559 2.42722C79.2625 2.43283 78.2635 2.44403 77.2701 2.44403C75.2273 2.44964 73.1788 2.45524 71.1359 2.46085C69.1211 2.46645 67.1006 2.47206 65.0858 2.47766C64.3731 2.47766 63.6603 2.48327 62.9475 2.47766C62.5715 2.47206 62.1955 2.42722 61.8307 2.34315C61.5613 2.2815 61.3256 2.15259 61.1179 1.97885C60.8149 1.72663 60.7475 1.36793 60.7644 0.992419C60.77 0.857907 60.798 0.723394 60.8373 0.60009C60.9496 0.224576 61.3088 -0.010826 61.696 0.000383392C61.9766 0.0115928 62.3526 0.286222 62.347 0.650527C62.3414 0.88032 62.3526 1.11572 62.1057 1.24463C62.0945 1.2054 62.0889 1.16616 62.0832 1.12693Z" fill="white"/>
<path d="M36.4574 27.4128C36.1656 27.4744 35.1217 27.4968 34.0946 27.4632C34.0273 27.4632 33.9599 27.4744 33.915 27.4072C33.988 27.3343 34.0946 27.3679 34.1788 27.3399C34.4875 27.2334 34.6839 27.0373 34.712 26.701C34.7288 26.5272 34.7457 26.3535 34.7457 26.1797C34.7513 25.1709 34.7513 24.162 34.7457 23.1532C34.7457 22.9907 34.7288 22.8337 34.7176 22.6712C34.6895 22.3237 34.5212 22.0939 34.1732 22.0042C34.089 21.9818 34.0105 21.9538 33.9207 21.9258C33.988 21.8417 34.0553 21.8697 34.1171 21.8697C34.9533 21.8697 35.7839 21.8697 36.6202 21.8697C36.8615 21.8697 37.1028 21.8865 37.3442 21.937C38.085 22.1051 38.7192 22.8898 38.388 23.8874C38.287 24.1957 38.0569 24.403 37.7651 24.5376C37.5181 24.6496 37.2544 24.7001 36.9794 24.7001C36.5865 24.7001 36.1992 24.7057 35.8064 24.7057C35.7054 24.7057 35.6605 24.7561 35.6605 24.8514C35.6661 25.4287 35.6549 26.006 35.6773 26.5833C35.6941 27.0485 35.8906 27.2558 36.3452 27.3567C36.3788 27.3623 36.435 27.3455 36.4574 27.4128ZM35.6492 23.2709C35.6492 23.5119 35.6436 23.7529 35.6492 23.9939C35.6661 24.6721 35.5258 24.5656 36.2554 24.56C36.3227 24.56 36.3901 24.5488 36.4574 24.5432C36.912 24.5095 37.1982 24.2517 37.3666 23.8538C37.5069 23.5175 37.4957 23.17 37.3891 22.8281C37.2207 22.3013 36.8727 22.0322 36.3227 22.0042C36.1487 21.993 35.9748 21.9986 35.8008 21.9986C35.6998 21.9986 35.6549 22.0435 35.6549 22.1443C35.6492 22.5143 35.6492 22.8954 35.6492 23.2709Z" fill="white"/>
<path d="M44.7807 27.4072C44.7358 27.4745 44.6684 27.4577 44.6011 27.4633C43.5291 27.5025 42.5357 27.4801 42.2327 27.4128C42.3 27.3232 42.401 27.3624 42.4796 27.34C42.7939 27.2447 42.9903 27.0485 43.024 26.7122C43.0408 26.5385 43.0633 26.3648 43.0633 26.191C43.0689 24.9019 43.0633 23.6129 43.0633 22.3182C43.0633 22.2621 43.0633 22.2117 43.0633 22.1556C43.0577 22.0323 43.0184 21.9987 42.8837 21.9987C42.8725 21.9987 42.8556 21.9987 42.8444 21.9987C42.5077 22.0267 42.1765 22.0211 41.8398 22.0884C41.3852 22.178 41.1046 22.4471 40.925 22.8562C40.852 23.0131 40.852 23.1981 40.7454 23.3494C40.6612 23.1364 40.6725 22.5984 40.7735 21.8978C40.8633 21.853 40.9587 21.8698 41.0485 21.8698C42.6929 21.8698 44.3317 21.8698 45.9761 21.8698C46.0434 21.8698 46.1108 21.8698 46.1781 21.8698C46.2791 21.8698 46.3184 21.9258 46.3184 22.0211C46.3353 22.4359 46.3577 22.8506 46.3802 23.271C46.3802 23.2934 46.3633 23.3214 46.3465 23.3326C46.3016 23.355 46.2735 23.3214 46.2623 23.2766C46.223 23.1477 46.195 23.0187 46.1444 22.8898C45.9929 22.5031 45.7123 22.2453 45.3194 22.1276C44.9153 22.0043 44.4944 22.0099 44.0791 22.0043C44.0174 22.0043 43.9781 22.0435 43.9725 22.0996C43.9669 22.1949 43.9669 22.2901 43.9669 22.3798C43.9669 23.6297 43.9669 24.8795 43.9669 26.1294C43.9669 26.2919 43.9669 26.4544 43.9837 26.6114C44.0174 27.0485 44.2026 27.2503 44.6403 27.3512C44.6909 27.3624 44.7526 27.3512 44.7807 27.4072Z" fill="white"/>
<path d="M70.4344 27.3737C70.1818 27.4578 68.3354 27.4858 67.9706 27.4522C67.9369 27.4466 67.9032 27.4186 67.8471 27.3905C67.9762 27.3625 68.0828 27.3457 68.1782 27.3177C68.4252 27.2392 68.5879 27.0767 68.6553 26.8133C68.6946 26.6675 68.7114 26.5218 68.7114 26.3761C68.7114 24.9917 68.7114 23.6074 68.7114 22.223C68.7114 22.1838 68.7114 22.1445 68.7058 22.0997C68.6946 22.0437 68.6609 21.9988 68.5992 22.0044C68.1558 22.01 67.7068 22.0044 67.2803 22.1445C66.9548 22.251 66.7359 22.4864 66.6068 22.7947C66.5338 22.974 66.4721 23.159 66.4047 23.344C66.343 23.3271 66.3318 23.2879 66.3318 23.2487C66.3486 22.8451 66.3655 22.4416 66.3879 22.0381C66.3935 21.8979 66.4216 21.8755 66.5563 21.8643C66.6236 21.8587 66.691 21.8643 66.7583 21.8643C68.3859 21.8643 70.0135 21.8643 71.6466 21.8643C71.742 21.8643 71.8318 21.8643 71.9441 21.8643C72.0002 22.3631 72.0283 22.8395 72.0339 23.3215C71.9497 23.3439 71.9329 23.2879 71.916 23.2431C71.8767 23.131 71.8431 23.0133 71.8038 22.9012C71.6522 22.492 71.3604 22.2398 70.9451 22.1221C70.7767 22.0717 70.6084 22.0324 70.4288 22.0324C70.1762 22.0324 69.918 21.9708 69.6655 22.0268C69.5645 22.2735 69.6262 22.5313 69.6206 22.7779C69.615 23.9212 69.615 25.0646 69.6206 26.208C69.6206 26.3817 69.6262 26.5554 69.6543 26.7292C69.7048 27.0711 69.9124 27.2785 70.2548 27.3513C70.3053 27.3569 70.3726 27.3681 70.4344 27.3737Z" fill="white"/>
<path d="M54.4842 26.8302C54.2709 27.1833 53.9286 27.3795 53.5525 27.486C52.7275 27.7157 51.9194 27.6485 51.1617 27.2449C50.4489 26.8694 50.0617 26.2305 49.9102 25.4571C49.7979 24.8686 49.8204 24.2801 50 23.7028C50.3255 22.6379 51.0663 22.0326 52.1382 21.7916C52.7051 21.6627 53.2607 21.7131 53.8107 21.8869C53.9622 21.9373 54.1138 21.9933 54.2709 22.0326C54.3776 22.0606 54.4842 22.0438 54.5571 21.9429C54.5908 21.8981 54.6245 21.8476 54.6806 21.8869C54.7031 21.9037 54.7199 21.9541 54.7199 21.9877C54.7311 22.537 54.7536 23.0807 54.7424 23.6355C54.6245 23.6523 54.6245 23.5627 54.602 23.5178C54.5347 23.3609 54.473 23.1928 54.4112 23.0302C54.3214 22.806 54.1867 22.6043 54.0296 22.4137C53.3786 21.629 52.2505 21.7355 51.678 22.3577C51.3806 22.6827 51.1561 23.0414 51.027 23.4562C50.7745 24.2576 50.7801 25.0703 51.0158 25.8774C51.0326 25.9391 51.0607 26.0063 51.0887 26.068C51.5714 27.2618 52.7163 27.5364 53.676 27.2393C53.9791 27.1441 54.2204 26.9591 54.4225 26.7125C54.473 26.7349 54.473 26.7854 54.4842 26.8302Z" fill="white"/>
<path d="M29.4421 23.2317C29.4758 23.0748 29.5151 22.9179 29.5488 22.7609C29.5768 22.6432 29.5712 22.5256 29.5488 22.4022C29.5039 22.1837 29.386 22.0435 29.1728 21.9707C29.1166 21.9539 29.0381 21.9875 28.9988 21.8698C29.1896 21.8642 29.3748 21.8642 29.5544 21.8586C29.7452 21.8586 29.9304 21.8586 30.1212 21.8586C30.2952 21.8586 30.4748 21.8362 30.6432 21.8642C30.834 21.8978 31.0136 21.8418 31.2044 21.853C31.3896 21.8642 31.5804 21.853 31.7713 21.853C31.9621 21.853 32.1473 21.853 32.3381 21.853C32.5121 21.853 32.6861 21.853 32.8657 21.853C33.0509 21.853 33.2417 21.853 33.4269 21.853C33.4437 21.9483 33.382 21.9427 33.3315 21.9539C33.2529 21.9763 33.1743 21.9931 33.0958 22.0211C32.8825 22.1052 32.7422 22.2565 32.6804 22.4807C32.6355 22.6489 32.6131 22.8226 32.6131 23.002C32.6131 24.1061 32.6131 25.2046 32.6131 26.3087C32.6131 26.4432 32.6355 26.5778 32.6524 26.7067C32.6973 27.0598 32.9049 27.2615 33.2417 27.3344C33.3034 27.3512 33.3708 27.3568 33.4381 27.3624C33.4269 27.4521 33.3651 27.4465 33.3202 27.4465C32.5514 27.4465 31.7825 27.4465 31.0192 27.4465C30.9631 27.4465 30.9126 27.4353 30.8789 27.3848C30.9687 27.312 31.0866 27.3456 31.182 27.3064C31.4233 27.2111 31.5973 27.0598 31.6534 26.8019C31.6815 26.673 31.7039 26.5385 31.7039 26.404C31.7095 25.2326 31.7095 24.0668 31.7039 22.8955C31.7039 22.7497 31.6927 22.604 31.6422 22.4583C31.5692 22.2397 31.4289 22.094 31.21 22.0155C30.7891 21.8642 30.3738 21.9651 30.0932 22.3182C29.9922 22.4415 29.9136 22.5872 29.8406 22.7329C29.7452 22.9235 29.661 23.1196 29.5656 23.3158C29.5263 23.3326 29.5095 23.3607 29.5207 23.3999C29.4534 23.3719 29.459 23.299 29.4421 23.2317Z" fill="white"/>
<path d="M74.7726 27.2783C75.2328 26.8635 75.2946 26.3647 75.0925 25.8098C75.0083 25.5744 74.8456 25.3951 74.6379 25.2606C74.4134 25.1148 74.1721 24.9915 73.942 24.857C73.7456 24.7449 73.5379 24.644 73.3471 24.5207C72.8139 24.1845 72.595 23.6856 72.6961 23.0747C72.8027 22.4302 73.1731 21.9818 73.8129 21.7744C74.1496 21.6679 74.4752 21.7072 74.8007 21.8193C74.9522 21.8753 75.0981 21.937 75.2497 21.993C75.4012 22.0491 75.5359 22.0435 75.6313 21.8809C75.6369 21.8697 75.6818 21.8753 75.7043 21.8697C75.7604 22.2957 75.7604 23.1196 75.7043 23.3998C75.6145 23.3662 75.6145 23.2821 75.5864 23.2148C75.5191 23.0243 75.4517 22.8337 75.3731 22.6544C75.2889 22.4582 75.1599 22.2789 75.0027 22.1331C74.6997 21.8529 74.3405 21.78 73.9532 21.8977C73.3415 22.0827 73.117 22.8561 73.5042 23.383C73.6614 23.5904 73.869 23.7417 74.0991 23.8538C74.3405 23.9771 74.5874 24.078 74.8231 24.2069C75.0252 24.3134 75.2272 24.4255 75.4068 24.56C75.94 24.9579 76.1589 25.5016 76.0522 26.1517C75.9456 26.8075 75.5752 27.2783 74.9298 27.5024C74.9073 27.5081 74.8792 27.508 74.8512 27.508C74.7558 27.4912 74.6884 27.4408 74.6884 27.3343H74.694C74.7277 27.3455 74.7558 27.3231 74.7726 27.2783Z" fill="white"/>
<path d="M94.8029 25.0085C94.4045 25.0702 94.0004 25.0422 93.5963 25.0478C91.3514 25.0758 89.1064 25.0982 86.8559 25.1206C85.3911 25.1375 83.9263 25.1543 82.4559 25.1655C80.789 25.1767 79.1222 25.1879 77.4497 25.1991C77.3543 25.1991 77.2589 25.1991 77.1691 25.1991C76.9053 25.1935 76.8885 25.1767 76.8997 24.9301C76.9053 24.7731 76.9278 24.7451 77.0961 24.7451C78.039 24.7451 78.9819 24.7507 79.9191 24.7507C81.2268 24.7563 82.5288 24.7619 83.8365 24.7731C85.1386 24.7787 86.4462 24.79 87.7483 24.8012C88.809 24.8124 89.8753 24.8292 90.9361 24.846C91.0146 24.846 91.0932 24.8628 91.1774 24.8684C91.2279 24.9189 91.2952 24.9301 91.3626 24.9301C91.5534 24.9301 91.7386 24.9301 91.9294 24.9301C92.7881 24.9301 93.6468 24.9301 94.5111 24.9301C94.6121 24.9357 94.73 24.9021 94.8029 25.0085Z" fill="white"/>
<path d="M49.2142 27.3795C48.8551 27.4748 47.0647 27.4748 46.6775 27.4244C46.7056 27.3179 46.7953 27.3627 46.8571 27.3459C47.2387 27.245 47.4239 27.032 47.4632 26.6397C47.48 26.4772 47.48 26.3202 47.48 26.1577C47.48 25.1657 47.48 24.168 47.48 23.176C47.48 23.0135 47.48 22.8509 47.4632 22.694C47.4295 22.3073 47.2668 22.1111 46.902 21.999C46.8627 21.9878 46.8234 21.9766 46.7841 21.9654C46.7504 21.9542 46.7168 21.943 46.6775 21.9318C46.6943 21.9037 46.7056 21.8701 46.7168 21.8701C47.3117 21.8421 48.8943 21.8589 49.1974 21.8925C49.1974 21.9822 49.1244 21.943 49.0852 21.9598C49.0347 21.9822 48.9841 21.9878 48.928 22.0046C48.625 22.0943 48.4566 22.3017 48.4229 22.6099C48.4005 22.8117 48.3836 23.0135 48.3836 23.2096C48.378 24.1736 48.378 25.1433 48.3836 26.1073C48.3836 26.281 48.3949 26.4547 48.4173 26.6285C48.4678 27.0601 48.6306 27.2338 49.0571 27.3347C49.1132 27.3627 49.1637 27.3683 49.2142 27.3795Z" fill="white"/>
<path d="M10.9439 24.8516C11.8194 24.8404 12.6949 24.8292 13.5648 24.8236C16.4832 24.8012 19.4016 24.7787 22.3256 24.7563C23.0103 24.7507 23.7007 24.7507 24.3854 24.7451C24.4527 24.7451 24.52 24.7451 24.5874 24.7451C24.666 24.7451 24.7165 24.7843 24.7165 24.8628C24.7221 24.9301 24.7165 24.9973 24.7165 25.0646C24.7109 25.1431 24.6716 25.1935 24.593 25.1935C24.3629 25.1935 24.1328 25.1991 23.9083 25.1991C23.1563 25.1935 22.4042 25.1823 21.6466 25.1767C20.193 25.1655 18.7394 25.1655 17.2858 25.1487C14.9062 25.1262 12.521 25.0982 10.1413 25.0702C9.18725 25.059 8.23316 25.0366 7.27906 25.0197C7.16682 24.9469 7.0209 25.031 6.83569 24.9189C7.18927 24.9189 7.46427 24.9245 7.73927 24.9189C8.74387 24.9077 9.74848 24.8908 10.7531 24.8796C10.8148 24.8908 10.8765 24.8684 10.9439 24.8516Z" fill="white"/>
<path d="M28.2298 26.5442C28.1288 26.8076 28.0222 27.0654 27.9211 27.3289C27.8931 27.3961 27.865 27.4522 27.7864 27.4578C27.7079 27.4634 27.6686 27.4129 27.6405 27.3457C27.5956 27.2336 27.5507 27.1215 27.5058 27.0094C27.0232 25.7707 26.5405 24.5321 26.0578 23.2935C25.9737 23.0805 25.8951 22.8675 25.7941 22.6601C25.5303 22.1221 25.4461 22.0548 24.8737 21.9371C24.8624 21.8531 24.9242 21.8643 24.9691 21.8643C25.766 21.8643 26.5573 21.8643 27.3543 21.8643C27.388 21.8643 27.4272 21.8755 27.4609 21.8811C27.4778 21.9708 27.4048 21.9539 27.3599 21.9708C27.3094 21.9876 27.2533 21.9988 27.2028 22.0156C26.8772 22.1165 26.7257 22.3687 26.7987 22.6938C26.8267 22.8115 26.8772 22.9236 26.9165 23.0357C27.2589 23.966 27.6012 24.902 27.9436 25.8324C27.9604 25.8828 27.9716 25.9333 27.9829 25.9893C27.9716 26.0566 27.9829 26.1126 28.0502 26.1519L28.0558 26.1743C28.0502 26.2584 28.0614 26.3312 28.1344 26.3817C28.2017 26.4153 28.213 26.4769 28.2298 26.5442Z" fill="white"/>
<path d="M2.35157 25.9164C1.63881 25.4568 0.881149 25.2158 0.0336914 24.9748C0.875536 24.7226 1.65003 24.504 2.32351 24.0444C2.55923 24.5937 2.55923 24.5937 3.13729 24.986C2.73321 25.1654 2.43576 25.44 2.35157 25.9164Z" fill="white"/>
<path d="M3.17656 2.2253C2.72758 2.39345 2.43013 2.66247 2.35717 3.15008C1.62757 2.69049 0.875519 2.42707 0 2.21969C0.864294 1.9899 1.62757 1.75451 2.31227 1.29492C2.44135 1.49109 2.4638 1.70967 2.62094 1.8666C2.76686 2.02353 2.95768 2.09079 3.17656 2.2253Z" fill="white"/>
<path d="M101.599 2.20292C101.543 2.29259 101.454 2.2982 101.386 2.31501C100.702 2.47194 100.056 2.72976 99.45 3.09407C99.3546 3.15012 99.2928 3.1333 99.276 3.02681C99.2199 2.67371 98.9954 2.46073 98.6811 2.32622C98.6306 2.3038 98.5857 2.27578 98.5408 2.24775C98.5576 2.16368 98.6306 2.15247 98.6867 2.12445C98.9785 1.98994 99.203 1.79377 99.2816 1.46309C99.3097 1.3566 99.3714 1.33419 99.4612 1.38463C100.073 1.73212 100.718 1.98994 101.409 2.14127C101.47 2.14687 101.532 2.17489 101.599 2.20292Z" fill="white"/>
<path d="M99.3602 24.0503C100.028 24.5211 100.791 24.7229 101.611 24.9751C100.78 25.2161 100.028 25.4459 99.3433 25.8998C99.2311 25.7037 99.2255 25.4739 99.0627 25.317C98.9112 25.1768 98.7316 25.0872 98.552 24.9751C98.7204 24.835 98.9224 24.7565 99.0796 24.6052C99.2479 24.4538 99.2086 24.2072 99.3602 24.0503Z" fill="white"/>
<path d="M91.2223 2.33738C91.5815 2.28133 91.9463 2.31496 92.3055 2.29814C93.007 2.27012 93.703 2.26452 94.4045 2.25331C94.4662 2.25331 94.5336 2.26452 94.6122 2.20286C94.3484 2.19726 94.1071 2.18605 93.8657 2.18605C92.1147 2.15802 90.3693 2.12439 88.6182 2.10758C85.9524 2.07955 83.2865 2.06835 80.6207 2.04593C80.5253 2.04593 80.4299 2.06274 80.3457 2.0123C80.4467 1.95625 80.5534 1.97307 80.66 1.97307C82.1809 1.98428 83.7019 1.99549 85.2228 2.00109C86.3116 2.0067 87.4004 2.0123 88.4948 2.02351C89.6397 2.03472 90.7846 2.04033 91.9239 2.05714C93.3606 2.07956 94.803 2.10197 96.2397 2.13C96.8234 2.14121 97.4071 2.18044 98.0357 2.20286C97.7158 2.27012 97.4295 2.25891 97.1489 2.25891C95.7515 2.28694 94.354 2.31496 92.9509 2.34298C92.4683 2.35419 91.98 2.35419 91.4973 2.35419C91.4075 2.3598 91.3178 2.34859 91.2223 2.33738Z" fill="white"/>
<path d="M40.5937 1.86133C40.532 1.88375 40.4702 1.92298 40.4085 1.92858C40.1559 1.95661 39.8978 1.98463 39.6452 1.98463C38.2029 1.99584 36.7661 1.99584 35.3238 2.00145C32.4727 2.00705 29.616 2.00705 26.765 2.01265C25.8783 2.01265 24.9859 2.01826 24.0992 2.01826C23.9645 2.01826 23.8298 2.00144 23.7007 1.99584C23.8073 1.91177 23.9364 1.9454 24.0543 1.9454C24.9803 1.93979 25.9119 1.93419 26.838 1.93419C29.8125 1.92858 32.787 1.92858 35.7559 1.92298C37.0355 1.92298 38.3095 1.92297 39.5891 1.91177C39.9258 1.91737 40.257 1.87814 40.5937 1.86133Z" fill="white"/>
<path d="M78.7349 2.00678C78.6171 2.01238 78.4936 2.02359 78.3757 2.02359C76.1981 2.02359 74.015 2.01799 71.8374 2.01238C69.9517 2.00678 68.0715 2.00678 66.1858 2.00118C65.1082 1.99557 64.0307 1.99557 62.9587 1.98436C62.6388 1.97875 62.3133 1.98996 62.0103 1.85545C62.0383 1.84984 62.0664 1.84424 62.0888 1.84424C62.7735 1.94513 63.4582 1.9171 64.1429 1.9171C66.4945 1.92271 68.8516 1.92271 71.2032 1.92271C72.6568 1.92271 74.1104 1.92831 75.5583 1.93391C76.5012 1.93391 77.4385 1.93952 78.3813 1.94513C78.5048 1.95073 78.6283 1.92831 78.7349 2.00678Z" fill="white"/>
<path d="M20.3895 2.01794C20.2772 2.08519 20.1538 2.05718 20.0359 2.05718C17.7517 2.07399 15.4675 2.07959 13.1833 2.10201C11.1965 2.12443 9.20979 2.15805 7.21742 2.19168C6.77405 2.19729 6.33068 2.2029 5.8873 2.2029C5.7919 2.2029 5.7021 2.18608 5.60669 2.18048C5.67404 2.12443 5.75822 2.13003 5.83679 2.13003C6.99293 2.11322 8.14906 2.09641 9.30519 2.0852C11.3761 2.06278 13.4415 2.03475 15.5124 2.01794C17.0558 2.00673 18.6048 2.00673 20.1482 2.00113C20.2323 1.99552 20.3109 2.01233 20.3895 2.01794Z" fill="white"/>
<path d="M74.6773 27.3457C74.6829 27.4522 74.7447 27.497 74.8401 27.5194C74.4753 27.6708 74.1049 27.6259 73.7345 27.5643C73.51 27.525 73.2967 27.441 73.089 27.3457C72.9038 27.2616 72.7355 27.2336 72.5783 27.4129C72.539 27.4578 72.4661 27.4241 72.4661 27.3625C72.4717 26.8525 72.4829 26.3424 72.4885 25.8324C72.4885 25.8156 72.5222 25.7988 72.5446 25.7764C72.6232 25.8716 72.6457 25.9893 72.6793 26.1014C72.7691 26.3705 72.8758 26.6283 73.0441 26.8581C73.4426 27.4129 73.9309 27.5755 74.5931 27.3569C74.6268 27.3513 74.6549 27.3513 74.6773 27.3457Z" fill="white"/>
<path d="M94.803 25.0086C94.7245 24.9021 94.6066 24.9357 94.5056 24.9357C93.6469 24.9357 92.7882 24.9357 91.9239 24.9357C91.7331 24.9357 91.5479 24.9357 91.3571 24.9357C91.2897 24.9357 91.2224 24.9245 91.1719 24.8741C91.7387 24.8741 92.2999 24.8685 92.8668 24.8741C93.5795 24.8853 94.2923 24.9021 95.0051 24.9189C95.6224 24.9301 96.2398 24.9469 96.8627 24.9581C96.9301 24.9581 97.0087 24.9525 97.0592 24.9806C97.2332 25.0927 97.424 25.0422 97.6092 25.0422C97.6429 25.0422 97.7046 25.0142 97.7046 24.9862C97.7158 24.9189 97.6485 24.9077 97.6036 24.9077C97.4184 24.9077 97.2275 24.8516 97.0536 24.975C97.0143 25.003 96.9469 24.9918 96.8964 24.9974C96.2398 25.0086 95.5775 25.0198 94.9209 25.031C94.8872 25.0254 94.8479 25.0142 94.803 25.0086Z" fill="white"/>
<path d="M10.9441 24.8515C10.8767 24.8627 10.815 24.8851 10.7476 24.8851C9.74303 24.9019 8.73843 24.9132 7.73383 24.9244C7.45882 24.93 7.18382 24.9244 6.83025 24.9244C7.02106 25.0365 7.16137 24.9524 7.27362 25.0252C7.1726 25.0869 7.06596 25.0645 6.95933 25.0645C6.3981 25.0589 5.83126 25.0589 5.27003 25.0421C4.96135 25.0309 4.65829 24.9972 4.34961 24.958C4.50675 24.9132 4.6639 24.9356 4.82665 24.9244C4.98941 24.9132 5.14656 24.8851 5.30931 24.8795C6.40932 24.8627 7.50933 24.8459 8.60934 24.8347C9.25476 24.8291 9.90017 24.8235 10.54 24.8179C10.6747 24.8291 10.8094 24.8459 10.9441 24.8515Z" fill="white"/>
<path d="M28.2299 26.5443C28.2131 26.4827 28.2019 26.421 28.1401 26.3818C28.0672 26.3369 28.0559 26.2585 28.0615 26.1744C28.1008 26.2192 28.1626 26.2473 28.1962 26.2024C28.2524 26.1296 28.2804 26.0343 28.3141 25.9502C28.6677 25.0871 29.0156 24.2296 29.3636 23.3664C29.3804 23.316 29.4141 23.2768 29.4422 23.2319C29.459 23.2992 29.459 23.372 29.532 23.4057C29.5432 23.4897 29.4927 23.557 29.4646 23.6299C29.0886 24.5434 28.707 25.4514 28.3253 26.365C28.3029 26.4266 28.2636 26.4827 28.2299 26.5443Z" fill="white"/>
<path d="M48.6924 2.25926C49.9495 2.26487 51.2067 2.27047 52.4638 2.27047C52.5705 2.27047 52.6771 2.25365 52.7837 2.24805C52.7893 2.30409 52.7949 2.36575 52.722 2.36014C51.5266 2.30409 50.3311 2.34333 49.1357 2.32652C49.0123 2.32652 48.8944 2.33212 48.7765 2.36575C48.7148 2.38257 48.6867 2.32091 48.6924 2.25926Z" fill="white"/>
<path d="M54.4841 26.8299C54.4729 26.7851 54.4729 26.7346 54.4224 26.7122C54.5571 26.432 54.6749 26.1405 54.7423 25.8267C54.8601 25.8659 54.8321 25.9444 54.8208 25.9948C54.7591 26.2975 54.6974 26.5945 54.4841 26.8299Z" fill="white"/>
<path d="M5.60664 2.18044C5.60103 2.20286 5.59542 2.23089 5.59542 2.25331C5.10154 2.29815 4.60765 2.27012 4.11938 2.21967C4.60765 2.17484 5.10715 2.13561 5.60664 2.18044Z" fill="white"/>
<path d="M40.3582 1.04841C40.3862 1.01478 40.4143 0.986753 40.4423 0.953125C40.5546 1.11566 40.6668 1.28941 40.8689 1.35667C40.8913 1.36228 40.9138 1.35667 40.9418 1.35667C40.9362 1.34546 40.9418 1.32864 40.9306 1.31743C40.925 1.31183 40.9025 1.30622 40.8913 1.31183C40.8801 1.31183 40.8689 1.32865 40.8576 1.32865C40.5995 1.40151 40.448 1.2726 40.3582 1.04841Z" fill="white"/>
<path d="M62.0833 1.12695C62.0889 1.16619 62.0945 1.20543 62.1001 1.24466C62.0047 1.36236 61.8868 1.39598 61.7465 1.31752C61.7128 1.3007 61.6736 1.28389 61.6399 1.31191C61.6736 1.31191 61.7072 1.30631 61.7465 1.31191C61.8981 1.32873 61.971 1.19421 62.0833 1.12695Z" fill="white"/>
<path d="M48.3667 1.61449C48.3948 1.61449 48.4228 1.60889 48.4509 1.60889C48.5295 1.7378 48.608 1.8611 48.5912 2.01803C48.4565 1.91714 48.406 1.77142 48.3667 1.61449Z" fill="white"/>
<path d="M52.778 2.25357C52.7612 2.17511 52.7836 2.11345 52.8566 2.07422C52.8846 2.15829 52.8734 2.21994 52.778 2.25357Z" fill="white"/>
<path d="M28.0559 26.1464C27.9942 26.1072 27.9774 26.0511 27.9886 25.9839C28.0335 26.0343 28.0672 26.0792 28.0559 26.1464Z" fill="white"/>
<path d="M40.3525 0.415039C40.3525 0.471088 40.3413 0.527134 40.2908 0.566368C40.2796 0.49911 40.3076 0.454273 40.3525 0.415039Z" fill="white"/>
<path d="M48.6138 2.08545C48.6587 2.10226 48.6756 2.13589 48.6587 2.18073C48.6138 2.16952 48.597 2.13589 48.6138 2.08545Z" fill="white"/>
<path d="M29.532 23.4058C29.5208 23.3666 29.5376 23.333 29.5769 23.3218C29.5881 23.3666 29.5657 23.389 29.532 23.4058Z" fill="white"/>
<path d="M40.3245 0.981445C40.3413 0.99826 40.3525 1.01507 40.3581 1.0431C40.3245 1.03189 40.3076 1.01508 40.3245 0.981445Z" fill="white"/>
<path d="M40.4421 0.672897C40.459 0.639269 40.4758 0.600035 40.4927 0.566406C40.4758 0.605639 40.459 0.639269 40.4421 0.672897Z" fill="white"/>
<path d="M74.7727 27.2783C74.7614 27.3232 74.7334 27.3456 74.6829 27.34C74.6941 27.2951 74.7222 27.2783 74.7727 27.2783Z" fill="white"/>
</svg>
