<svg width="48" height="48" viewBox="0 0 48 48" fill="none" xmlns="http://www.w3.org/2000/svg">
<circle cx="24" cy="24" r="24" fill="#FCFCFC"/>
<path d="M15.083 35.2503V33.8116C15.083 33.26 14.7472 32.9004 14.1717 32.9004C13.8839 32.9004 13.5722 32.9963 13.3563 33.308C13.1886 33.0442 12.9488 32.9004 12.5891 32.9004C12.3492 32.9004 12.1096 32.9723 11.9176 33.2361V32.9483H11.4141V35.2503H11.9176V33.9794C11.9176 33.5718 12.1335 33.3799 12.4693 33.3799C12.8048 33.3799 12.9728 33.5958 12.9728 33.9794V35.2503H13.4764V33.9794C13.4764 33.5718 13.716 33.3799 14.0278 33.3799C14.3636 33.3799 14.5314 33.5958 14.5314 33.9794V35.2503H15.083ZM22.5404 32.9483H21.7252V32.253H21.2217V32.9483H20.7661V33.4038H21.2216V34.459C21.2216 34.9866 21.4374 35.2983 22.013 35.2983C22.2288 35.2983 22.4685 35.2264 22.6365 35.1305L22.4925 34.6988C22.3486 34.7947 22.1808 34.8187 22.0609 34.8187C21.8211 34.8187 21.7252 34.6749 21.7252 34.435V33.4038H22.5404V32.9483ZM26.8088 32.9003C26.5211 32.9003 26.3293 33.0442 26.2094 33.2361V32.9483H25.7058V35.2503H26.2094V33.9555C26.2094 33.5718 26.3772 33.356 26.6889 33.356C26.7848 33.356 26.9047 33.38 27.0007 33.4039L27.1445 32.9244C27.0486 32.9004 26.9047 32.9004 26.8088 32.9004V32.9003ZM20.3584 33.1401C20.1185 32.9723 19.7829 32.9004 19.4231 32.9004C18.8477 32.9004 18.4641 33.1881 18.4641 33.6437C18.4641 34.0274 18.7518 34.2432 19.2554 34.3152L19.4951 34.3392C19.7589 34.387 19.9028 34.459 19.9028 34.579C19.9028 34.7467 19.711 34.8667 19.3752 34.8667C19.0395 34.8667 18.7757 34.7467 18.6078 34.6269L18.3681 35.0105C18.6319 35.2024 18.9916 35.2983 19.3512 35.2983C20.0226 35.2983 20.4064 34.9866 20.4064 34.5549C20.4064 34.1473 20.0946 33.9314 19.615 33.8596L19.3752 33.8355C19.1593 33.8115 18.9916 33.7636 18.9916 33.6198C18.9916 33.4519 19.1593 33.356 19.4231 33.356C19.711 33.356 19.9987 33.4758 20.1426 33.5478L20.3584 33.1401ZM33.7389 32.9004C33.4511 32.9004 33.2593 33.0442 33.1393 33.2361V32.9483H32.6358V35.2503H33.1393V33.9555C33.1393 33.5718 33.3072 33.356 33.6189 33.356C33.7149 33.356 33.8348 33.38 33.9307 33.4039L34.0746 32.9244C33.9787 32.9004 33.8348 32.9004 33.7389 32.9004ZM27.3124 34.0993C27.3124 34.7947 27.7919 35.2983 28.5354 35.2983C28.8711 35.2983 29.1108 35.2264 29.3506 35.0346L29.1108 34.6269C28.919 34.7708 28.7272 34.8427 28.5113 34.8427C28.1037 34.8427 27.816 34.5549 27.816 34.0993C27.816 33.6677 28.1037 33.3799 28.5113 33.356C28.7272 33.356 28.919 33.4279 29.1108 33.5718L29.3506 33.1642C29.1108 32.9723 28.8711 32.9004 28.5354 32.9004C27.7919 32.9004 27.3124 33.4039 27.3124 34.0993ZM31.9644 34.0993V32.9483H31.4609V33.2361C31.293 33.0203 31.0532 32.9004 30.7415 32.9004C30.094 32.9004 29.5905 33.4039 29.5905 34.0993C29.5905 34.7947 30.094 35.2983 30.7415 35.2983C31.0771 35.2983 31.317 35.1784 31.4609 34.9626V35.2503H31.9644V34.0993ZM30.118 34.0993C30.118 33.6917 30.3817 33.356 30.8133 33.356C31.221 33.356 31.5088 33.6677 31.5088 34.0993C31.5088 34.507 31.221 34.8427 30.8133 34.8427C30.3817 34.8186 30.118 34.507 30.118 34.0993ZM24.0992 32.9004C23.4277 32.9004 22.9481 33.3799 22.9481 34.0993C22.9481 34.8187 23.4276 35.2983 24.1231 35.2983C24.4588 35.2983 24.7946 35.2024 25.0584 34.9866L24.8185 34.6269C24.6267 34.7708 24.3869 34.8667 24.1472 34.8667C23.8354 34.8667 23.5237 34.7228 23.4517 34.3151H25.1543V34.1234C25.1783 33.3799 24.7466 32.9004 24.0991 32.9004H24.0992ZM24.0992 33.332C24.4108 33.332 24.6268 33.5239 24.6746 33.8836H23.4757C23.5237 33.5718 23.7395 33.332 24.0992 33.332ZM36.5924 34.0993V32.0371H36.0889V33.2361C35.921 33.0203 35.6812 32.9004 35.3694 32.9004C34.722 32.9004 34.2185 33.4039 34.2185 34.0993C34.2185 34.7947 34.722 35.2983 35.3694 35.2983C35.7052 35.2983 35.945 35.1784 36.0889 34.9626V35.2503H36.5924V34.0993ZM34.746 34.0993C34.746 33.6917 35.0097 33.356 35.4414 33.356C35.8491 33.356 36.1368 33.6677 36.1368 34.0993C36.1368 34.507 35.8491 34.8427 35.4414 34.8427C35.0097 34.8186 34.746 34.507 34.746 34.0993ZM17.9125 34.0993V32.9483H17.4089V33.2361C17.241 33.0203 17.0012 32.9004 16.6895 32.9004C16.0421 32.9004 15.5385 33.4039 15.5385 34.0993C15.5385 34.7947 16.0421 35.2983 16.6895 35.2983C17.0253 35.2983 17.265 35.1784 17.4089 34.9626V35.2503H17.9125V34.0993ZM16.0421 34.0993C16.0421 33.6917 16.3059 33.356 16.7374 33.356C17.1451 33.356 17.4329 33.6677 17.4329 34.0993C17.4329 34.507 17.1451 34.8427 16.7374 34.8427C16.3059 34.8186 16.0421 34.507 16.0421 34.0993Z" fill="#0E1013"/>
<path d="M20.1914 14.8467H27.7449V28.419H20.1914V14.8467Z" fill="#FF5F00"/>
<path d="M20.6709 21.6326C20.6709 18.875 21.9657 16.429 23.956 14.8464C22.4933 13.6954 20.647 13 18.6327 13C13.8606 13 10 16.8606 10 21.6326C10 26.4044 13.8606 30.2652 18.6326 30.2652C20.6468 30.2652 22.4932 29.5698 23.956 28.4187C21.9657 26.8601 20.6709 24.3902 20.6709 21.6326Z" fill="#EB001B"/>
<path d="M37.9354 21.6326C37.9354 26.4044 34.0748 30.2652 29.3029 30.2652C27.2886 30.2652 25.4422 29.5698 23.9795 28.4187C25.9938 26.8361 27.2647 24.3902 27.2647 21.6326C27.2647 18.875 25.9697 16.429 23.9795 14.8464C25.4421 13.6954 27.2886 13 29.3029 13C34.0748 13 37.9356 16.8847 37.9356 21.6326H37.9354Z" fill="#F79E1B"/>
</svg>
