<svg width="48" height="48" viewBox="0 0 48 48" fill="none" xmlns="http://www.w3.org/2000/svg">
<circle cx="24" cy="24" r="24" fill="#FCFCFC"/>
<path d="M12.5822 23.8922L11.5788 19.2236C11.5083 18.9513 11.3363 18.7135 11.0954 18.5554C10.8545 18.3973 10.5616 18.3301 10.2725 18.3665H5.62937L5.59375 18.5893C9.20375 19.4236 11.5906 21.4465 12.5822 23.8922ZM15.9547 18.4693L13.0216 25.675L12.7188 24.5893C11.763 22.8001 10.3282 21.289 8.5625 20.2122L11.2403 29.0179H14.405L19.1194 18.4693H15.9547ZM20.3366 18.4693L18.4663 29.0407H21.435L23.3113 18.4693H20.3366ZM39.9837 18.4693H37.6562C37.3306 18.4285 37.0001 18.4927 36.7165 18.6519C36.4329 18.8112 36.2121 19.0564 36.0888 19.3493L31.6653 29.0293H34.8062C34.8062 29.0293 35.3169 27.7265 35.4356 27.4407H39.2653C39.3544 27.8065 39.6275 29.0179 39.6275 29.0179H42.4062L39.9837 18.4693ZM36.2966 25.2807C36.5459 24.675 37.4841 22.3265 37.4841 22.3265C37.4841 22.3265 37.7334 21.7207 37.8819 21.3207L38.0897 22.2293L38.7784 25.2807H36.2966ZM29.3438 22.7036C28.3047 22.2179 27.6634 21.8865 27.6694 21.395C27.6753 20.9036 28.2097 20.4865 29.3794 20.4865C30.147 20.4667 30.9102 20.605 31.6178 20.8922L31.8909 21.0122L32.2947 18.7265C31.4365 18.4273 30.5296 18.2783 29.6169 18.2865C26.6481 18.2865 24.5759 19.715 24.5581 21.7722C24.5581 23.2865 26.0425 24.1379 27.1766 24.6293C28.3106 25.1207 28.75 25.4807 28.75 25.9436C28.75 26.6522 27.8178 26.9779 26.9688 26.9779C25.9973 26.9994 25.034 26.8038 24.1544 26.4065L23.7684 26.235L23.3469 28.6007C24.4141 28.9838 25.5447 29.1774 26.6838 29.1722C29.8247 29.1722 31.8672 27.755 31.8909 25.5607C31.885 24.3722 31.0894 23.4579 29.3438 22.7036Z" fill="#282A73"/>
<path d="M11.5788 19.2232C11.5083 18.9509 11.3363 18.7131 11.0954 18.555C10.8545 18.397 10.5616 18.3297 10.2725 18.3661H5.62937L5.59375 18.5889C9.20375 19.4289 11.5906 21.4461 12.5822 23.8975L11.5788 19.2232Z" fill="#F99F1B"/>
</svg>
