<svg width="30" height="30" viewBox="0 0 30 30" fill="none" xmlns="http://www.w3.org/2000/svg">
<rect width="30" height="30" rx="15" fill="#C39A6B"/>
<path d="M19.1211 17.6256C20.1047 16.5252 20.6479 15.1007 20.6469 13.6248C20.6469 10.3025 17.9434 7.60254 14.6246 7.60254C11.3023 7.60254 8.60234 10.3061 8.60234 13.6248C8.60234 16.9436 11.3059 19.6471 14.6246 19.6471C16.1005 19.6481 17.525 19.1049 18.6254 18.1213L21.8 21.2959C21.8326 21.3288 21.8716 21.3547 21.9144 21.3723C21.9573 21.3898 22.0033 21.3985 22.0496 21.3979C22.1429 21.3975 22.2324 21.3609 22.2992 21.2959C22.3318 21.2634 22.3577 21.2247 22.3753 21.1822C22.393 21.1397 22.402 21.0941 22.402 21.048C22.402 21.002 22.393 20.9564 22.3753 20.9139C22.3577 20.8714 22.3318 20.8327 22.2992 20.8002L19.1211 17.6256ZM9.30195 13.6248C9.30195 10.6928 11.6891 8.30566 14.6211 8.30566C17.5531 8.30566 19.9402 10.6928 19.9402 13.6248C19.9402 16.5568 17.5531 18.9439 14.6211 18.9439C11.6891 18.9439 9.30195 16.5568 9.30195 13.6248Z" fill="white" stroke="white"/>
</svg>
