<svg id="Group_34758" data-name="Group 34758" xmlns="http://www.w3.org/2000/svg" width="10.543" height="13.233" viewBox="0 0 10.543 13.233">
  <g id="noun_Location_1014246" transform="translate(0 0)">
    <path id="Path_11187" data-name="Path 11187" d="M29.057,15.542a5.264,5.264,0,0,0-10.519,0,5,5,0,0,0,.318,2.144,5.707,5.707,0,0,0,1.189,1.893l3.434,4a.411.411,0,0,0,.637,0l3.434-4a5.88,5.88,0,0,0,1.189-1.893A5.264,5.264,0,0,0,29.057,15.542ZM23.8,17.2a1.676,1.676,0,1,1,1.625-1.675A1.659,1.659,0,0,1,23.8,17.2Z" transform="translate(-18.525 -10.5)" fill="#3350cb"/>
  </g>
</svg>
