<svg width="24" height="24" viewBox="0 0 24 24" fill="none" xmlns="http://www.w3.org/2000/svg">
<path fill-rule="evenodd" clip-rule="evenodd" d="M4.35917 5.06081C4.36117 5.06081 4.31117 5.11281 4.24817 5.17481C4.00617 5.40981 3.50517 5.89881 3.50012 6.92181C3.49217 8.35281 4.43317 11.0098 8.96417 15.5398C13.4742 20.0478 16.1272 20.9998 17.5612 20.9998H17.5822C18.6052 20.9948 19.0932 20.4928 19.3292 20.2518C19.4012 20.1778 19.4592 20.1238 19.5002 20.0898C20.4962 19.0878 21.0062 18.3418 21.0012 17.8638C20.9942 17.3758 20.3872 16.7988 19.5482 16.0008C19.2812 15.7468 18.9912 15.4708 18.6852 15.1648C17.8922 14.3738 17.4992 14.5088 16.6352 14.8128C15.4402 15.2318 13.8002 15.8018 11.2522 13.2528C8.70017 10.7028 9.27117 9.06481 9.68917 7.86981C9.99117 7.00581 10.1292 6.61181 9.33517 5.81781C9.02417 5.50781 8.74517 5.21381 8.48817 4.94381C7.69517 4.10981 7.12317 3.50681 6.63817 3.49981H6.63017C6.15117 3.49981 5.40717 4.01181 4.35417 5.06481C4.35717 5.06181 4.35917 5.06081 4.35917 5.06081ZM17.5622 22.4998C15.0702 22.4998 11.8212 20.5158 7.90417 16.6008C3.97217 12.6698 1.98517 9.41081 2.00008 6.91381C2.00917 5.26381 2.87417 4.41881 3.19917 4.10181C3.21617 4.08081 3.27417 4.02381 3.29417 4.00381C4.72817 2.56881 5.69517 1.98881 6.65717 1.99966C7.77417 2.01481 8.56917 2.85081 9.57517 3.90981C9.82417 4.17181 10.0942 4.45681 10.3952 4.75681C11.8552 6.21681 11.4392 7.40781 11.1052 8.36381C10.7412 9.40681 10.4262 10.3068 12.3122 12.1928C14.2002 14.0788 15.1002 13.7638 16.1392 13.3968C17.0962 13.0628 18.2842 12.6448 19.7462 14.1048C20.0422 14.4008 20.3232 14.6678 20.5822 14.9148C21.6462 15.9258 22.4862 16.7248 22.5004 17.8448C22.5122 18.7998 21.9322 19.7728 20.5002 21.2058L19.8662 20.7758L20.4022 21.2998C20.0852 21.6248 19.2412 22.4908 17.5902 22.4998H17.5622Z" fill="#0A0F1A"/>
</svg>
