<svg width="24" height="24" viewBox="0 0 24 24" fill="none" xmlns="http://www.w3.org/2000/svg">
<g clip-path="url(#clip0_13_220)">
<path d="M19.781 11.3923L15.001 5.39228C14.9185 5.28955 14.8165 5.20415 14.7009 5.14098C14.5852 5.0778 14.4582 5.03811 14.3272 5.02417C14.1962 5.01023 14.0637 5.02232 13.9374 5.05975C13.811 5.09718 13.6933 5.15922 13.591 5.24228C13.4883 5.3248 13.4029 5.42682 13.3397 5.54245C13.2765 5.65809 13.2369 5.78507 13.2229 5.9161C13.209 6.04713 13.2211 6.17962 13.2585 6.30596C13.2959 6.4323 13.358 6.54999 13.441 6.65228L17.711 12.0223L13.231 17.3923C13.1468 17.4933 13.0834 17.61 13.0443 17.7356C13.0053 17.8612 12.9914 17.9933 13.0035 18.1243C13.0156 18.2552 13.0534 18.3825 13.1147 18.4989C13.1761 18.6152 13.2598 18.7183 13.361 18.8023C13.5423 18.9478 13.7686 19.0256 14.001 19.0223C14.1479 19.0225 14.2931 18.9904 14.4262 18.9282C14.5593 18.8659 14.677 18.7752 14.771 18.6623L19.771 12.6623C19.9195 12.4845 20.0017 12.2607 20.0035 12.0291C20.0053 11.7974 19.9267 11.5724 19.781 11.3923Z" fill="white"/>
<path d="M6.00176 5.39222C5.83467 5.17872 5.58962 5.04034 5.3205 5.00752C5.05139 4.9747 4.78026 5.05013 4.56676 5.21722C4.35326 5.38431 4.21488 5.62936 4.18206 5.89848C4.14924 6.16759 4.22467 6.43872 4.39176 6.65222L8.71176 12.0222L4.23176 17.3822C4.14756 17.4833 4.08412 17.5999 4.04507 17.7255C4.00603 17.8511 3.99215 17.9832 4.00422 18.1142C4.0163 18.2452 4.0541 18.3725 4.11545 18.4888C4.1768 18.6052 4.2605 18.7083 4.36176 18.7922C4.54167 18.9413 4.76811 19.0227 5.00176 19.0222C5.14867 19.0225 5.29383 18.9903 5.42691 18.9281C5.56 18.8659 5.67774 18.7751 5.77176 18.6622L10.7718 12.6622C10.9188 12.4833 10.9992 12.2588 10.9992 12.0272C10.9992 11.7956 10.9188 11.5712 10.7718 11.3922L6.00176 5.39222Z" fill="white"/>
</g>
<defs>
<clipPath id="clip0_13_220">
<rect width="24" height="24" fill="white"/>
</clipPath>
</defs>
</svg>
