<svg width="512" height="512" viewBox="0 0 512 512" fill="none" xmlns="http://www.w3.org/2000/svg">
<path d="M221.4 302.136V265.416C221.4 265.416 217.562 290.237 199.969 280.577C113.862 235.285 120.516 187.369 131.519 163.571C131.519 163.443 131.583 163.315 131.647 163.251C133.822 157.558 136.956 152.632 140.859 148.41C140.987 148.282 141.115 148.154 141.115 148.154C153.845 134.592 174.764 128.322 197.091 128.322C232.02 128.322 269.764 143.804 284.797 170.48H288.699V128.834C266.885 126.403 240.72 123.013 213.596 123.013C159.347 123.013 105.546 136.575 105.546 195.686C105.546 248.079 168.431 271.621 221.464 302.136H221.4Z" fill="#1D1F1F"/>
<path d="M206.88 267.654L212.637 257.035L223.193 251.277L212.637 245.456L206.88 234.9L201.058 245.456L190.503 251.277L201.058 257.035L206.88 267.654Z" fill="#1D1F1F"/>
<path d="M378.267 201.762V317.744C367.903 300.855 356.452 286.398 344.489 273.987C344.042 273.539 343.594 273.027 343.146 272.579C342.762 272.196 342.442 271.876 342.058 271.492C341.035 270.468 340.011 269.445 338.988 268.421C338.412 267.845 337.836 267.334 337.26 266.822C292.991 224.856 242.709 209.886 209.955 204.577C209.891 204.577 209.827 204.577 209.763 204.577C202.918 203.361 196.201 202.402 189.676 201.826V239.058C190.827 233.876 195.817 217.115 210.787 225.368C296.894 270.66 290.241 318.576 279.237 342.374C279.237 342.502 279.173 342.629 279.109 342.693C276.934 348.387 273.8 353.313 269.897 357.535L269.641 357.791C256.911 371.353 235.992 377.622 213.665 377.622C178.736 377.622 140.993 362.141 125.959 335.465H122.057V377.111C143.871 379.542 170.036 382.932 197.16 382.932C251.409 382.932 305.21 369.37 305.21 310.259C305.21 269.253 266.699 245.903 224.541 223.065C219.103 220.122 213.601 217.179 208.1 214.236L213.729 215.708C232.601 220.25 249.17 225.879 263.692 232.341C303.803 252.556 353.765 294.65 370.27 381.589H396.243V237.906C396.243 223.96 404.24 211.933 415.883 206.048L416.075 201.826H378.203L378.267 201.762Z" fill="#1D1F1F"/>
<path d="M420.613 90.3867C376.536 46.3096 317.873 22 255.5 22C193.127 22 134.464 46.3096 90.3867 90.3867C46.3096 134.464 22 193.127 22 255.5C22 317.873 46.3096 376.536 90.3867 420.613C134.464 464.69 193.127 489 255.5 489C317.873 489 376.536 464.69 420.613 420.613C464.69 376.536 489 317.873 489 255.5C489 193.127 464.69 134.464 420.613 90.3867ZM255.5 471.408C136.447 471.408 39.5925 374.553 39.5925 255.5C39.5925 136.447 136.447 39.5925 255.5 39.5925C374.553 39.5925 471.408 136.447 471.408 255.5C471.408 374.553 374.553 471.408 255.5 471.408Z" fill="#1D1F1F"/>
</svg>
