<svg width="17" height="16" viewBox="0 0 17 16" fill="none" xmlns="http://www.w3.org/2000/svg">
<path d="M8.12029 12.1832L5.02028 14.0499C4.9314 14.1054 4.83695 14.1304 4.73695 14.1249C4.63695 14.1193 4.54806 14.0888 4.47028 14.0332C4.39251 13.9776 4.33417 13.9054 4.29528 13.8165C4.2564 13.7276 4.24806 13.6276 4.27028 13.5165L5.08695 9.9832L2.35362 7.59987C2.26473 7.52209 2.21195 7.43598 2.19528 7.34154C2.17862 7.24709 2.1814 7.15543 2.20362 7.06654C2.22584 6.97765 2.27584 6.90265 2.35362 6.84154C2.4314 6.78043 2.52584 6.74431 2.63695 6.7332L6.25362 6.41654L7.65362 3.0832C7.69806 2.9832 7.76473 2.9082 7.85362 2.8582C7.94251 2.8082 8.0314 2.7832 8.12029 2.7832C8.20917 2.7832 8.29806 2.8082 8.38695 2.8582C8.47584 2.9082 8.54251 2.9832 8.58695 3.0832L9.98695 6.41654L13.6036 6.7332C13.7147 6.74431 13.8092 6.78043 13.887 6.84154C13.9647 6.90265 14.0147 6.97765 14.037 7.06654C14.0592 7.15543 14.062 7.24709 14.0453 7.34154C14.0286 7.43598 13.9758 7.52209 13.887 7.59987L11.1536 9.9832L11.9703 13.5165C11.9925 13.6276 11.9842 13.7276 11.9453 13.8165C11.9064 13.9054 11.8481 13.9776 11.7703 14.0332C11.6925 14.0888 11.6036 14.1193 11.5036 14.1249C11.4036 14.1304 11.3092 14.1054 11.2203 14.0499L8.12029 12.1832Z" fill="#FFA621"/>
</svg>
